<?xml version="1.0" encoding="utf-8"?>
<!-- Generator: Adobe Illustrator 21.0.0, SVG Export Plug-In . SVG Version: 6.00 Build 0)  -->
<svg version="1.1" id="Layer_1" xmlns="http://www.w3.org/2000/svg" xmlns:xlink="http://www.w3.org/1999/xlink" x="0px" y="0px"
	 viewBox="0 0 841.9 257.6" style="enable-background:new 0 0 841.9 257.6;" xml:space="preserve">
<g>
	<polygon points="211.4,205.6 211.4,202.2 177.2,202.2 177.2,205.6 192.4,205.6 192.4,253 196.2,253 196.2,205.6 	"/>
	<g>
		<path d="M245.2,227.6c0,10.9-0.3,14.9-3.9,18.5c-2.6,2.6-6,3.9-9.6,3.9c-3.6,0-7.1-1.4-9.6-3.9c-3.6-3.6-3.9-7.6-3.9-18.5
			c0-10.9,0.3-14.9,3.9-18.5c2.6-2.6,6-3.9,9.6-3.9c3.6,0,7.1,1.4,9.6,3.9C244.9,212.8,245.2,216.7,245.2,227.6 M249,227.6
			c0-11.5-0.1-16-4.7-20.6c-3.4-3.4-7.9-5.2-12.7-5.2c-4.8,0-9.4,1.9-12.7,5.2c-4.6,4.6-4.7,9.1-4.7,20.6c0,11.5,0.1,16,4.7,20.6
			c3.4,3.4,7.9,5.2,12.7,5.2c4.8,0,9.4-1.9,12.7-5.2C249,243.6,249,239.1,249,227.6"/>
	</g>
	<polygon points="301.6,253 301.6,202.2 297.8,202.2 280.5,241.4 262.8,202.2 258.9,202.2 258.9,253 262.8,253 262.8,211.1 
		278.5,245.9 282.4,245.9 297.8,211.1 297.8,253 	"/>
	<g>
		<path d="M342.5,227.6c0,10.9-0.3,14.9-3.9,18.5c-2.6,2.6-6,3.9-9.6,3.9c-3.6,0-7.1-1.4-9.6-3.9c-3.6-3.6-3.9-7.6-3.9-18.5
			c0-10.9,0.3-14.9,3.9-18.5c2.6-2.6,6-3.9,9.6-3.9c3.6,0,7.1,1.4,9.6,3.9C342.2,212.8,342.5,216.7,342.5,227.6 M346.4,227.6
			c0-11.5-0.1-16-4.7-20.6c-3.4-3.4-7.9-5.2-12.7-5.2c-4.8,0-9.4,1.9-12.7,5.2c-4.6,4.6-4.7,9.1-4.7,20.6c0,11.5,0.1,16,4.7,20.6
			c3.4,3.4,7.9,5.2,12.7,5.2c4.8,0,9.4-1.9,12.7-5.2C346.3,243.6,346.4,239.1,346.4,227.6"/>
		<path d="M386.3,215.9c0,7-4.7,10.3-11.2,10.3h-15v-20.6h15C381.6,205.6,386.3,208.9,386.3,215.9 M390.8,253l-12.3-23.5
			c7.1-1.2,11.7-6.1,11.7-13.7c0-8.9-6.3-13.6-14.6-13.6h-19.4V253h3.9v-23.4h14l12.1,23.4H390.8z"/>
		<path d="M429.4,215.9c0,7-4.7,10.3-11.2,10.3h-15v-20.6h15C424.7,205.6,429.4,208.9,429.4,215.9 M433.9,253l-12.3-23.5
			c7.1-1.2,11.7-6.1,11.7-13.7c0-8.9-6.3-13.6-14.6-13.6h-19.4V253h3.9v-23.4h14l12.1,23.4H433.9z"/>
		<path d="M471.5,227.6c0,10.9-0.3,14.9-3.9,18.5c-2.6,2.6-6,3.9-9.6,3.9c-3.6,0-7.1-1.4-9.6-3.9c-3.6-3.6-3.9-7.6-3.9-18.5
			c0-10.9,0.3-14.9,3.9-18.5c2.6-2.6,6-3.9,9.6-3.9c3.6,0,7.1,1.4,9.6,3.9C471.2,212.8,471.5,216.7,471.5,227.6 M475.3,227.6
			c0-11.5-0.1-16-4.7-20.6c-3.4-3.4-7.9-5.2-12.7-5.2c-4.8,0-9.4,1.9-12.7,5.2c-4.6,4.6-4.7,9.1-4.7,20.6c0,11.5,0.1,16,4.7,20.6
			c3.4,3.4,7.9,5.2,12.7,5.2c4.8,0,9.4-1.9,12.7-5.2C475.2,243.6,475.3,239.1,475.3,227.6"/>
	</g>
	<polygon points="535.3,202.2 531.3,202.2 520.5,246.4 508.7,202.2 504.7,202.2 492.8,246.4 482.1,202.2 478.1,202.2 490.8,253 
		494.7,253 506.7,208.8 518.7,253 522.6,253 	"/>
	<polygon points="583.4,205.6 583.4,202.2 549.2,202.2 549.2,205.6 564.3,205.6 564.3,253 568.2,253 568.2,205.6 	"/>
	<g>
		<path d="M617.2,227.6c0,10.9-0.3,14.9-3.9,18.5c-2.6,2.6-6,3.9-9.6,3.9c-3.6,0-7.1-1.4-9.6-3.9c-3.6-3.6-3.9-7.6-3.9-18.5
			c0-10.9,0.3-14.9,3.9-18.5c2.6-2.6,6-3.9,9.6-3.9c3.6,0,7.1,1.4,9.6,3.9C616.9,212.8,617.2,216.7,617.2,227.6 M621,227.6
			c0-11.5-0.1-16-4.7-20.6c-3.4-3.4-7.9-5.2-12.7-5.2c-4.8,0-9.4,1.9-12.7,5.2c-4.6,4.6-4.7,9.1-4.7,20.6c0,11.5,0.1,16,4.7,20.6
			c3.4,3.4,7.9,5.2,12.7,5.2c4.8,0,9.4-1.9,12.7-5.2C620.9,243.6,621,239.1,621,227.6"/>
		<path d="M661.8,226.9c0,5.6,0.3,14.6-3.8,18.8c-2.9,3-6.9,3.9-10.9,3.9h-12.3v-44H647c4.1,0,8,0.9,10.9,3.9
			C662,213.7,661.8,221.3,661.8,226.9 M665.6,226.9c0-6.9,0.2-14.9-4.9-20.1c-3-3-7.4-4.6-12.7-4.6h-17.1V253H648
			c5.3,0,9.7-1.6,12.7-4.6C665.8,243.3,665.6,233.8,665.6,226.9"/>
	</g>
	<path d="M699.1,237.3h-21.3l10.6-29.9L699.1,237.3z M708.8,253l-18.7-50.8h-3.4L668,253h4.1l4.4-12.4h23.7l4.4,12.4H708.8z"/>
	<polygon points="738.2,202.2 734,202.2 721.4,227.9 708.5,202.2 704.3,202.2 719.3,232 719.3,253 723.2,253 723.2,232 	"/>
</g>
<g>
	<g>
		<path style="fill:#780D10;" d="M460.6,168c0,5.8-0.3,7.4-1.7,8.9c-1,1.1-2.6,1.8-4.3,1.8c-1.7,0-3.3-0.7-4.3-1.8
			c-1.4-1.5-1.7-3.1-1.7-8.9c0-5.8,0.3-7.4,1.7-8.9c1-1.1,2.6-1.8,4.3-1.8c1.7,0,3.3,0.7,4.3,1.8C460.3,160.6,460.6,162.2,460.6,168
			 M465,168c0-5.5,0.1-8.7-2.7-11.5c-2-2-4.5-3.1-7.6-3.1c-3.1,0-5.6,1.1-7.5,3.1c-2.8,2.8-2.8,6-2.8,11.5c0,5.5,0,8.7,2.8,11.5
			c2,2,4.5,3.1,7.5,3.1c3.1,0,5.6-1.1,7.6-3.1C465,176.7,465,173.5,465,168"/>
	</g>
	<polygon style="fill:#780D10;" points="489.7,157.6 489.7,153.7 471.4,153.7 471.4,182.3 475.7,182.3 475.7,170.2 487.7,170.2 
		487.7,166.3 475.7,166.3 475.7,157.6 	"/>
	<polygon style="fill:#780D10;" points="521.4,157.6 521.4,153.7 501.3,153.7 501.3,157.6 509.2,157.6 509.2,182.3 513.5,182.3 
		513.5,157.6 	"/>
	<polygon style="fill:#780D10;" points="543.1,182.3 543.1,178.4 529.1,178.4 529.1,169.8 541,169.8 541,165.9 529.1,165.9 
		529.1,157.6 543.1,157.6 543.1,153.7 524.7,153.7 524.7,182.3 	"/>
	<g>
		<path style="fill:#780D10;" d="M566.5,173.8h-4.4c-0.7,2.9-2.7,4.9-5.8,4.9c-1.7,0-3.2-0.6-4.2-1.7c-1.4-1.5-1.7-3.2-1.7-8.9
			c0-5.8,0.3-7.4,1.7-8.9c1-1.1,2.5-1.7,4.2-1.7c3.2,0,5.1,2,5.8,4.9h4.4c-1-5.7-5-8.8-10.2-8.8c-3,0-5.6,1.1-7.5,3.1
			c-2.8,2.8-2.8,6-2.8,11.5c0,5.5,0,8.7,2.8,11.5c2,2,4.5,3.1,7.5,3.1C561.5,182.6,565.5,179.5,566.5,173.8"/>
	</g>
	<polygon style="fill:#780D10;" points="591,182.3 591,153.7 586.7,153.7 586.7,165.9 575,165.9 575,153.7 570.7,153.7 570.7,182.3 
		575,182.3 575,169.8 586.7,169.8 586.7,182.3 	"/>
	<polygon style="fill:#780D10;" points="619.3,182.3 619.3,153.7 614.9,153.7 614.9,173.8 601.7,153.7 597.7,153.7 597.7,182.3 
		602,182.3 602,162.2 615.3,182.3 	"/>
	<g>
		<path style="fill:#780D10;" d="M640.4,168c0,5.8-0.3,7.4-1.7,8.9c-1,1.1-2.6,1.8-4.3,1.8c-1.7,0-3.3-0.7-4.3-1.8
			c-1.4-1.5-1.7-3.1-1.7-8.9c0-5.8,0.3-7.4,1.7-8.9c1-1.1,2.6-1.8,4.3-1.8c1.7,0,3.3,0.7,4.3,1.8C640.1,160.6,640.4,162.2,640.4,168
			 M644.7,168c0-5.5,0.1-8.7-2.7-11.5c-2-2-4.5-3.1-7.6-3.1c-3.1,0-5.6,1.1-7.5,3.1c-2.8,2.8-2.8,6-2.8,11.5c0,5.5,0,8.7,2.8,11.5
			c2,2,4.5,3.1,7.5,3.1c3.1,0,5.6-1.1,7.6-3.1C644.8,176.7,644.7,173.5,644.7,168"/>
	</g>
	<polygon style="fill:#780D10;" points="667.3,182.3 667.3,178.4 653.5,178.4 653.5,153.7 649.2,153.7 649.2,182.3 	"/>
	<g>
		<path style="fill:#780D10;" d="M685.1,168c0,5.8-0.3,7.4-1.7,8.9c-1,1.1-2.6,1.8-4.3,1.8c-1.7,0-3.3-0.7-4.3-1.8
			c-1.4-1.5-1.7-3.1-1.7-8.9c0-5.8,0.3-7.4,1.7-8.9c1-1.1,2.6-1.8,4.3-1.8c1.7,0,3.3,0.7,4.3,1.8C684.8,160.6,685.1,162.2,685.1,168
			 M689.4,168c0-5.5,0.1-8.7-2.7-11.5c-2-2-4.5-3.1-7.6-3.1c-3.1,0-5.6,1.1-7.5,3.1c-2.8,2.8-2.8,6-2.8,11.5c0,5.5,0,8.7,2.8,11.5
			c2,2,4.5,3.1,7.5,3.1c3.1,0,5.6-1.1,7.6-3.1C689.5,176.7,689.4,173.5,689.4,168"/>
		<path style="fill:#780D10;" d="M714.8,171.2v-4.4h-10.5v3.7h6.1v1.6c0,1.9-0.4,3.3-1.4,4.5c-1.1,1.3-2.8,2-4.7,2
			c-1.7,0-3.2-0.6-4.2-1.7c-1.4-1.5-1.7-3.2-1.7-8.9c0-5.8,0.3-7.4,1.7-8.9c1-1.1,2.5-1.8,4.2-1.8c3.2,0,5.3,1.9,6,5h4.4
			c-0.8-4.9-4.3-8.9-10.4-8.9c-3.1,0-5.6,1.1-7.5,3.1c-2.8,2.8-2.8,6-2.8,11.5c0,5.5,0,8.7,2.8,11.5c2,2,4.6,3.1,7.5,3.1
			c3,0,5.7-1,7.9-3.3C714.1,177.3,714.8,174.9,714.8,171.2"/>
	</g>
	<polygon style="fill:#780D10;" points="738.3,153.7 733.6,153.7 727.6,166.3 721.6,153.7 716.8,153.7 725.4,170.5 725.4,182.3 
		729.8,182.3 729.8,170.5 	"/>
	<path style="fill:#780D10;" d="M457.4,140h-5l2.6-7.7L457.4,140z M467.9,150.1l-10.4-28.7h-5.4l-10.4,28.7h7.4l1.4-4.3h8.8l1.3,4.3
		H467.9z"/>
	<g>
		<path style="fill:#780D10;" d="M491.7,140.1v-18.6h-7v18.4c0,2.7-1.5,4.2-3.9,4.2c-2.3,0-3.8-1.5-3.8-4.2v-18.4h-7v18.6
			c0,6.3,4.9,10.3,10.8,10.3C486.7,150.4,491.7,146.3,491.7,140.1"/>
		<path style="fill:#780D10;" d="M516.7,141.3c0-2.7-0.6-4.8-2.1-6.3c-1.2-1.2-3.1-2-5.6-2.4l-3.5-0.5c-1-0.1-1.6-0.5-2-0.8
			c-0.4-0.4-0.6-1-0.6-1.3c0-1.2,1-2.7,3.5-2.7c1.2,0,3.6-0.1,5.4,1.7l4.4-4.4c-2.5-2.5-5.6-3.4-9.7-3.4c-6.5,0-10.5,3.8-10.5,9.1
			c0,2.5,0.6,4.4,2,5.8c1.3,1.3,3.2,2.2,5.8,2.5l3.5,0.5c0.9,0.1,1.5,0.4,1.9,0.8c0.4,0.4,0.6,1,0.6,1.7c0,1.7-1.3,2.6-4.1,2.6
			c-2.3,0-4.9-0.5-6.4-2l-4.5,4.5c2.9,3,6.5,3.8,10.9,3.8C511.6,150.4,516.7,147.2,516.7,141.3"/>
	</g>
	<polygon style="fill:#780D10;" points="540.7,127.7 540.7,121.5 519.6,121.5 519.6,127.7 526.6,127.7 526.6,150.1 533.7,150.1 
		533.7,127.7 	"/>
	<g>
		<path style="fill:#780D10;" d="M558.9,130.7c0,1.5-1.1,2.9-3.1,2.9h-4v-5.8h4C557.8,127.8,558.9,129.2,558.9,130.7 M567.5,150.1
			l-6.2-12c2.3-1.1,4.7-3.6,4.7-7.5c0-4.7-3.4-9.2-9.8-9.2h-11.4v28.7h7v-10.7h2.4l5.1,10.7H567.5z"/>
	</g>
	<rect x="570.7" y="121.5" style="fill:#780D10;" width="7" height="28.7"/>
	<path style="fill:#780D10;" d="M596,140h-5l2.6-7.7L596,140z M606.5,150.1l-10.4-28.7h-5.4l-10.4,28.7h7.4l1.4-4.3h8.8l1.3,4.3
		H606.5z"/>
	<polygon style="fill:#780D10;" points="631.4,150.1 631.4,121.5 624.4,121.5 624.4,135.9 615.2,121.5 609,121.5 609,150.1 
		616.1,150.1 616.1,135.7 625.3,150.1 	"/>
	<rect x="646.9" y="121.5" style="fill:#780D10;" width="4.3" height="28.7"/>
	<polygon style="fill:#780D10;" points="679.9,150.1 679.9,121.5 675.6,121.5 675.6,141.6 662.3,121.5 658.3,121.5 658.3,150.1 
		662.7,150.1 662.7,129.9 675.9,150.1 	"/>
	<g>
		<path style="fill:#780D10;" d="M704.9,141.9c0-2.5-0.8-4.5-2.3-5.9c-1.2-1.1-2.7-1.7-5.4-2.1l-3.3-0.5c-1.3-0.2-2.5-0.7-3.2-1.3
			c-0.8-0.7-1.1-1.6-1.1-2.7c0-2.5,1.9-4.5,5.2-4.5c2.4,0,4.5,0.5,6.2,2.2l2.8-2.7c-2.5-2.3-5.1-3.3-8.9-3.3c-6,0-9.6,3.4-9.6,8.4
			c0,2.3,0.7,4.1,2.1,5.5c1.2,1.2,3.1,2,5.4,2.3l3.4,0.5c1.7,0.2,2.4,0.5,3.1,1.2c0.8,0.7,1.1,1.7,1.1,3c0,2.8-2.2,4.4-5.9,4.4
			c-2.9,0-5.2-0.6-7.3-2.7l-2.9,2.9c2.7,2.8,5.8,3.8,10.1,3.8C700.6,150.4,704.9,147.2,704.9,141.9"/>
	</g>
	<polygon style="fill:#780D10;" points="728.4,125.4 728.4,121.5 708.2,121.5 708.2,125.4 716.1,125.4 716.1,150.1 720.5,150.1 
		720.5,125.4 	"/>
	<rect x="733.3" y="121.5" style="fill:#780D10;" width="4.3" height="28.7"/>
	<polygon style="fill:#780D10;" points="762.7,125.4 762.7,121.5 742.6,121.5 742.6,125.4 750.5,125.4 750.5,150.1 754.8,150.1 
		754.8,125.4 	"/>
	<g>
		<path style="fill:#780D10;" d="M787.4,140.5v-19h-4.3v18.8c0,3.8-2.4,6.2-6,6.2c-3.6,0-5.9-2.4-5.9-6.2v-18.8h-4.3v19
			c0,5.9,4.4,9.9,10.3,9.9C782.9,150.4,787.4,146.4,787.4,140.5"/>
	</g>
	<polygon style="fill:#780D10;" points="811.7,125.4 811.7,121.5 791.5,121.5 791.5,125.4 799.4,125.4 799.4,150.1 803.8,150.1 
		803.8,125.4 	"/>
	<polygon style="fill:#780D10;" points="834.5,150.1 834.5,146.2 820.5,146.2 820.5,137.6 832.5,137.6 832.5,133.7 820.5,133.7 
		820.5,125.4 834.5,125.4 834.5,121.5 816.2,121.5 816.2,150.1 	"/>
</g>
<polygon style="fill:#7D8386;" points="445.3,61.4 445.3,8.6 308,8.6 308,61.4 349,61.4 349,182.4 404.3,182.4 404.3,61.4 "/>
<rect x="242.6" y="8.6" style="fill:#7D8386;" width="55.3" height="173.7"/>
<g>
	<polygon style="fill:#7D8386;" points="177.2,182.4 232.5,182.4 232.5,8.6 180.8,8.6 7.2,182.4 78.6,182.4 177.2,83.6 	"/>
</g>
<g>
</g>
<g>
</g>
<g>
</g>
<g>
</g>
<g>
</g>
<g>
</g>
</svg>
