<?xml version="1.0" encoding="utf-8"?>
<!-- Generator: Adobe Illustrator 21.0.0, SVG Export Plug-In . SVG Version: 6.00 Build 0)  -->
<svg version="1.1" id="Layer_1" xmlns="http://www.w3.org/2000/svg" xmlns:xlink="http://www.w3.org/1999/xlink" x="0px" y="0px"
	 viewBox="0 0 350 75" style="enable-background:new 0 0 350 75;" xml:space="preserve">
<rect x="-1190.9" y="-267.8" style="fill:#344142;" width="880.5" height="642"/>
<g>
	<path style="fill:#237B34;" d="M-2727.5,28.6c0.4-1.7,0.9-3.3,1.3-4.9c0.4-1.7,1-2.1,2.7-2.1c0.5,0,0.9,0,1.4,0
		c1.5,0,2,0.5,2.4,1.9c0.4,1.3,0.7,2.7,1.1,4c0.1,0.3,0.2,0.7,0.3,1.1c1.5,0,3,0,4.5,0c1.6,0,3.1,0.2,4.6,0.7c3,1,5.2,2.9,6.9,5.6
		c1.4,2.3,2.8,4.5,4.2,6.7c1.1,1.8,2.6,3.1,4.6,3.8c3.1,1.2,4.8,3.7,4.8,7.1c0,2.6-0.1,5.2,0,7.8c0.1,2.9-2.1,6-6.5,5.1
		c1.2-5.3-0.2-9.8-4.8-12.8c-3.9-2.6-8.1-2.6-12-0.2c-4.8,3-6.3,7.5-5.2,13.1c-7.1,0-14.2,0-21.3,0c1.2-5.4-0.2-9.8-4.8-12.9
		c-3.8-2.5-8-2.6-11.9-0.2c-4.9,3-6.4,7.5-5.3,13c-0.1,0.1-0.2,0.2-0.3,0.2c-1.9,0-3.8,0.1-5.8,0c-2.6-0.2-4.4-2.2-4.4-4.8
		c0-1.6,0-3.1,0-4.7c0-0.7-0.2-1-0.8-1.4c-2.8-1.6-4.6-4.1-5.2-7.3c-1-5.4,2.7-10.9,8.1-12c0.7-0.1,1.4-0.2,2-0.2
		c3.6-0.1,6.2-2.5,6.6-6.1c0.1-0.9,0-1.8,0-2.8c-3.1-1-5-3.1-5.3-6.6c0.8,0,1.6-0.1,2.5-0.1c0-1.2,0-2.3,0-3.4c0-0.5,0-1,0-1.5
		c0.1-0.8,0.5-1.3,1.2-1.2c0.7,0,1.2,0.5,1.2,1.3c0,0.6,0,1.2,0,1.8c0,1,0,2,0,3c1.3,0,2.5,0,3.8,0c0-1.4,0-2.8,0-4.2
		c0-0.4,0-0.7,0.1-1.1c0.1-0.6,0.6-0.9,1.2-0.9c0.6,0,1,0.3,1.1,0.9c0.1,0.3,0.1,0.7,0.1,1.1c0,1.4,0,2.7,0,4.2
		c0.8,0,1.6,0.1,2.3,0.1c0.4,2.6-1.5,5.1-5.1,6.6c-0.1,1.1,0,2.2-0.2,3.3c-0.5,4.8-4.2,8.3-9,8.6c-0.5,0-0.9,0-1.4,0.1
		c-2.9,0.4-5.4,2.6-6.1,5.5c-0.8,3,0.4,6.1,2.8,7.9c0.1,0.1,0.3,0.2,0.5,0.3c0.1-0.2,0.2-0.4,0.3-0.6c1.8-3.9,4.8-6.1,9.1-6.3
		c2.2-0.1,4.4-0.3,6.3-1.3c1.4-0.7,2.8-1.5,4-2.4c2.9-2.3,5.7-4.8,8.4-7.2c4.1-3.6,8.8-5.4,14.2-5.5
		C-2728,28.7-2727.8,28.6-2727.5,28.6z M-2724.6,31.2c-1.2,0-2.2,0-3.3,0c-4.3,0-8.2,1.4-11.5,4.2c-2.5,2.1-5,4.3-7.5,6.4
		c-0.2,0.1-0.3,0.3-0.4,0.6c7.6,0,15.2,0,22.7,0C-2724.6,38.7-2724.6,35-2724.6,31.2z M-2721.4,42.5c6.6,0,13.2,0,19.9,0
		c-1.4-2.3-2.7-4.4-4-6.5c-2-3.1-4.9-4.7-8.6-4.8c-2.1,0-4.1,0-6.2,0c-0.3,0-0.6,0-1,0.1C-2721.4,35-2721.4,38.7-2721.4,42.5z"/>
	<path style="fill:#64B661;" d="M-2706.3,53.2c5.1,0,9.2,4,9.2,9.1c0,5-4.1,9.2-9.1,9.1c-5.1,0-9.1-4.1-9.1-9.2
		C-2715.3,57.2-2711.3,53.2-2706.3,53.2z M-2702.5,62.3c0-2.1-1.7-3.8-3.8-3.8c-2.1,0-3.8,1.8-3.8,3.8c0,2.1,1.7,3.7,3.8,3.7
		C-2704.2,66.1-2702.5,64.4-2702.5,62.3z"/>
	<path style="fill:#64B661;" d="M-2758.7,62.2c0-5.1,4.1-9.1,9.2-9c5,0,9,4.1,9.1,9.1c0,5-4.1,9.2-9.2,9.1
		C-2754.6,71.4-2758.7,67.3-2758.7,62.2z M-2745.8,62.3c0-2.1-1.7-3.8-3.8-3.8c-2,0-3.7,1.7-3.8,3.7c0,2.1,1.7,3.8,3.8,3.8
		C-2747.5,66.1-2745.8,64.4-2745.8,62.3z"/>
	<path style="fill:#415052;" d="M-2709,10.3c-0.3,0.4-0.5,0.9-0.8,1.1c-0.4,0.2-0.9,0.1-1.3,0c-0.3-0.1-0.5-0.4-0.7-0.6
		c-6.3-5.8-15.8-5.8-22.2,0c-0.2,0.2-0.4,0.4-0.7,0.6c-0.5,0.4-1.3,0.3-1.7-0.2c-0.4-0.4-0.4-1.1-0.1-1.6c0.1-0.2,0.3-0.4,0.5-0.6
		c7.1-6.8,18.7-6.8,25.8-0.1C-2709.7,9.3-2709.4,9.8-2709,10.3z"/>
	<path style="fill:#415052;" d="M-2732.8,14.3c0.4-0.5,0.6-0.9,1-1.2c4.3-4,11-4.6,16-1.4c0.8,0.5,1.4,1.1,2.1,1.7
		c0.4,0.4,0.6,0.9,0.3,1.5c-0.3,0.7-1.1,1-1.7,0.6c-0.3-0.2-0.5-0.4-0.8-0.6c-4.1-3.6-10-3.6-14.1-0.1c-0.2,0.2-0.5,0.4-0.7,0.6
		c-0.4,0.3-0.9,0.3-1.3,0C-2732.3,15.2-2732.5,14.8-2732.8,14.3z"/>
	<path style="fill:#415052;" d="M-2722.9,15.4c1.9,0.1,3.6,0.7,5,2c0.7,0.7,0.7,1.4,0.1,2c-0.5,0.5-1.1,0.4-1.8,0
		c-0.7-0.4-1.3-0.9-2-1.2c-1.5-0.5-3-0.2-4.3,0.8c-0.2,0.2-0.4,0.3-0.6,0.5c-0.6,0.4-1.4,0.3-1.8-0.2c-0.4-0.5-0.4-1.2,0.1-1.8
		C-2726.7,16.1-2724.9,15.4-2722.9,15.4z"/>
	<g>
		<path style="fill:#237B34;" d="M-2651,40.9c-0.1-0.2-0.5-0.4-1.2-0.8c-0.7-0.4-1.5-0.8-2.5-1.3c-1-0.5-2.1-0.8-3.3-1.2
			c-1.2-0.3-2.4-0.5-3.6-0.5c-3.3,0-5,1.1-5,3.3c0,0.7,0.2,1.2,0.5,1.7c0.4,0.5,0.9,0.9,1.6,1.2c0.7,0.4,1.6,0.7,2.6,1
			c1.1,0.3,2.3,0.6,3.7,1c1.9,0.5,3.7,1.1,5.2,1.7c1.5,0.6,2.9,1.4,3.9,2.3c1.1,0.9,1.9,2,2.5,3.4c0.6,1.3,0.9,2.9,0.9,4.8
			c0,2.3-0.4,4.2-1.3,5.7c-0.8,1.6-2,2.8-3.4,3.8c-1.4,1-3,1.7-4.8,2.1c-1.8,0.4-3.7,0.7-5.6,0.7c-1.5,0-3-0.1-4.5-0.3
			c-1.5-0.2-3.1-0.6-4.5-1c-1.5-0.4-2.9-1-4.3-1.6c-1.4-0.6-2.7-1.3-3.8-2.1l4.1-8.1c0.2,0.2,0.6,0.5,1.5,1.1
			c0.8,0.5,1.9,1.1,3.1,1.6c1.2,0.5,2.6,1,4.1,1.4c1.5,0.4,3,0.6,4.6,0.6c3.3,0,4.9-1,4.9-3c0-0.8-0.2-1.4-0.7-1.9
			c-0.5-0.5-1.2-0.9-2-1.3c-0.9-0.4-1.9-0.8-3.1-1.1c-1.2-0.3-2.5-0.7-3.9-1.1c-1.8-0.6-3.5-1.2-4.8-1.8c-1.4-0.7-2.5-1.4-3.4-2.3
			c-0.9-0.9-1.5-1.9-2-3c-0.4-1.1-0.7-2.5-0.7-4c0-2.1,0.4-4,1.2-5.6c0.8-1.6,1.9-3,3.2-4.1c1.4-1.1,2.9-2,4.7-2.5
			c1.8-0.6,3.7-0.8,5.7-0.8c1.4,0,2.8,0.1,4.1,0.4c1.4,0.3,2.7,0.6,3.9,1c1.2,0.4,2.4,0.9,3.5,1.4c1.1,0.5,2.1,1.1,3,1.6L-2651,40.9
			z"/>
		<path style="fill:#237B34;" d="M-2641.1,36.2V28h9.1v8.2H-2641.1z M-2641.1,69.3V39.6h9.1v29.7H-2641.1z"/>
		<path style="fill:#237B34;" d="M-2578.8,69.3h-9.1V52.6c0-2-0.4-3.4-1.1-4.3c-0.7-0.9-1.6-1.3-2.8-1.3c-0.6,0-1.2,0.1-1.8,0.4
			c-0.6,0.3-1.2,0.6-1.7,1.1c-0.5,0.5-1,1-1.4,1.7c-0.4,0.6-0.8,1.3-1,2.1v17h-9.1V52.6c0-2-0.4-3.4-1.1-4.3
			c-0.7-0.9-1.6-1.3-2.8-1.3c-1.2,0-2.4,0.5-3.5,1.4c-1.2,1-2,2.2-2.5,3.8v17h-9.1V39.6h8.1v5c1.1-1.8,2.6-3.2,4.4-4.1
			c1.9-0.9,4-1.4,6.5-1.4c1.2,0,2.3,0.2,3.3,0.5c0.9,0.3,1.7,0.7,2.4,1.2s1.2,1.1,1.6,1.8s0.7,1.4,0.9,2.2c1.1-1.8,2.6-3.3,4.5-4.3
			c1.8-1,4-1.5,6.3-1.5c1.9,0,3.4,0.3,4.6,1c1.2,0.7,2,1.6,2.7,2.7c0.6,1.1,1.1,2.3,1.3,3.6c0.2,1.3,0.3,2.6,0.3,3.8V69.3z"/>
		<path style="fill:#415052;" d="M-2547.5,36.7c-1.1-1.3-2.6-2.3-4.5-3.1c-1.9-0.8-4-1.2-6.5-1.2c-3.5,0-6.1,0.7-7.8,2
			c-1.6,1.3-2.4,3.2-2.4,5.5c0,1.2,0.2,2.2,0.7,3c0.4,0.8,1.1,1.4,2,2c0.9,0.6,2.1,1.1,3.5,1.5c1.4,0.4,3.1,0.8,5,1.2
			c2.2,0.5,4.1,1,5.8,1.5c1.7,0.6,3.2,1.3,4.4,2.1c1.2,0.8,2.1,1.9,2.8,3.1c0.6,1.2,1,2.7,1,4.5c0,1.8-0.4,3.5-1.1,4.8
			c-0.7,1.4-1.7,2.5-3,3.4c-1.3,0.9-2.8,1.6-4.6,2c-1.8,0.4-3.7,0.7-5.8,0.7c-6.2,0-11.6-1.9-16.1-5.8l2-3.2
			c0.7,0.8,1.6,1.5,2.6,2.2s2.1,1.3,3.3,1.8c1.2,0.5,2.5,0.9,3.9,1.2c1.4,0.3,2.9,0.4,4.4,0.4c3.2,0,5.7-0.6,7.5-1.7
			c1.8-1.2,2.7-2.9,2.7-5.2c0-1.2-0.3-2.3-0.8-3.1c-0.5-0.8-1.3-1.6-2.3-2.2c-1-0.6-2.3-1.2-3.8-1.6c-1.5-0.5-3.3-0.9-5.3-1.4
			c-2.1-0.5-4-1-5.5-1.5c-1.6-0.5-2.9-1.2-4-2c-1.1-0.8-1.9-1.7-2.5-2.9c-0.5-1.1-0.8-2.5-0.8-4.1c0-1.8,0.3-3.5,1-5
			c0.7-1.5,1.7-2.7,3-3.6s2.8-1.7,4.5-2.2c1.7-0.5,3.7-0.8,5.8-0.8c2.7,0,5.1,0.4,7.2,1.2c2.1,0.8,4,2,5.7,3.4L-2547.5,36.7z"/>
		<path style="fill:#415052;" d="M-2524.8,29.2h3.3l16.7,40.2h-4.2l-5.2-12.6h-18l-5.1,12.6h-4.2L-2524.8,29.2z M-2515.1,53.7
			l-8.1-19.9l-8.2,19.9H-2515.1z"/>
		<path style="fill:#415052;" d="M-2472,65.8v3.5h-27V29.2h26.5v3.5h-22.5v14.5h19.6v3.3h-19.6v15.3H-2472z"/>
		<path style="fill:#415052;" d="M-2464.7,29.2l14.4,35.3l14.3-35.3h4.1l-16.7,40.2h-3.5l-16.7-40.2H-2464.7z"/>
	</g>
</g>
<g>
	<path style="fill:#585858;" d="M-1800.6,28.6c0.4-1.7,0.9-3.3,1.3-4.9c0.4-1.7,1-2.1,2.7-2.1c0.5,0,0.9,0,1.4,0
		c1.5,0,2,0.5,2.4,1.9c0.4,1.3,0.7,2.7,1.1,4c0.1,0.3,0.2,0.7,0.3,1.1c1.5,0,3,0,4.5,0c1.6,0,3.1,0.2,4.6,0.7c3,1,5.2,2.9,6.9,5.6
		c1.4,2.3,2.8,4.5,4.2,6.7c1.1,1.8,2.6,3.1,4.6,3.8c3.1,1.2,4.8,3.7,4.8,7.1c0,2.6-0.1,5.2,0,7.8c0.1,2.9-2.1,6-6.5,5.1
		c1.2-5.3-0.2-9.8-4.8-12.8c-3.9-2.6-8.1-2.6-12-0.2c-4.8,3-6.3,7.5-5.2,13.1c-7.1,0-14.2,0-21.3,0c1.2-5.4-0.2-9.8-4.8-12.9
		c-3.8-2.5-8-2.6-11.9-0.2c-4.9,3-6.4,7.5-5.3,13c-0.1,0.1-0.2,0.2-0.3,0.2c-1.9,0-3.8,0.1-5.8,0c-2.6-0.2-4.4-2.2-4.4-4.8
		c0-1.6,0-3.1,0-4.7c0-0.7-0.2-1-0.8-1.4c-2.8-1.6-4.6-4.1-5.2-7.3c-1-5.4,2.7-10.9,8.1-12c0.7-0.1,1.4-0.2,2-0.2
		c3.6-0.1,6.2-2.5,6.6-6.1c0.1-0.9,0-1.8,0-2.8c-3.1-1-5-3.1-5.3-6.6c0.8,0,1.6-0.1,2.5-0.1c0-1.2,0-2.3,0-3.4c0-0.5,0-1,0-1.5
		c0.1-0.8,0.5-1.3,1.2-1.2c0.7,0,1.2,0.5,1.2,1.3c0,0.6,0,1.2,0,1.8c0,1,0,2,0,3c1.3,0,2.5,0,3.8,0c0-1.4,0-2.8,0-4.2
		c0-0.4,0-0.7,0.1-1.1c0.1-0.6,0.6-0.9,1.2-0.9c0.6,0,1,0.3,1.1,0.9c0.1,0.3,0.1,0.7,0.1,1.1c0,1.4,0,2.7,0,4.2
		c0.8,0,1.6,0.1,2.3,0.1c0.4,2.6-1.5,5.1-5.1,6.6c0,1.1,0,2.2-0.2,3.3c-0.5,4.8-4.2,8.3-9,8.6c-0.5,0-0.9,0-1.4,0.1
		c-2.9,0.4-5.4,2.6-6.1,5.5c-0.8,3,0.4,6.1,2.8,7.9c0.1,0.1,0.3,0.2,0.5,0.3c0.1-0.2,0.2-0.4,0.3-0.6c1.8-3.9,4.8-6.1,9.1-6.3
		c2.2-0.1,4.4-0.3,6.3-1.3c1.4-0.7,2.8-1.5,4-2.4c2.9-2.3,5.7-4.8,8.4-7.2c4.1-3.6,8.8-5.4,14.2-5.5
		C-1801.1,28.7-1800.9,28.6-1800.6,28.6z M-1797.6,31.2c-1.2,0-2.2,0-3.3,0c-4.3,0-8.2,1.4-11.5,4.2c-2.5,2.1-5,4.3-7.5,6.4
		c-0.2,0.1-0.3,0.3-0.5,0.6c7.6,0,15.2,0,22.7,0C-1797.6,38.7-1797.6,35-1797.6,31.2z M-1794.5,42.5c6.6,0,13.2,0,19.9,0
		c-1.4-2.3-2.7-4.4-4-6.5c-2-3.1-4.9-4.7-8.6-4.8c-2.1,0-4.1,0-6.2,0c-0.3,0-0.6,0-1,0.1C-1794.5,35-1794.5,38.7-1794.5,42.5z"/>
	<path style="fill:#A8A8A8;" d="M-1779.4,53.2c5.1,0,9.2,4,9.2,9.1c0,5-4.1,9.2-9.1,9.1c-5.1,0-9.1-4.1-9.1-9.2
		C-1788.4,57.2-1784.4,53.2-1779.4,53.2z M-1775.5,62.3c0-2.1-1.7-3.8-3.8-3.8c-2.1,0-3.8,1.8-3.8,3.8c0,2.1,1.7,3.7,3.8,3.7
		C-1777.2,66.1-1775.5,64.4-1775.5,62.3z"/>
	<path style="fill:#A8A8A8;" d="M-1831.7,62.2c0-5.1,4.1-9.1,9.2-9c5,0,9,4.1,9.1,9.1c0,5-4.1,9.2-9.2,9.1
		C-1827.7,71.4-1831.7,67.3-1831.7,62.2z M-1818.9,62.3c0-2.1-1.7-3.8-3.8-3.8c-2,0-3.7,1.7-3.8,3.7c0,2.1,1.7,3.8,3.8,3.8
		C-1820.6,66.1-1818.8,64.4-1818.9,62.3z"/>
	<path style="fill:#383838;" d="M-1782.1,10.3c-0.3,0.4-0.5,0.9-0.8,1.1c-0.4,0.2-0.9,0.1-1.3,0c-0.3-0.1-0.5-0.4-0.7-0.6
		c-6.3-5.8-15.8-5.8-22.2,0c-0.2,0.2-0.4,0.4-0.7,0.6c-0.5,0.4-1.3,0.3-1.7-0.2c-0.4-0.4-0.4-1.1-0.1-1.6c0.1-0.2,0.3-0.4,0.5-0.6
		c7.1-6.8,18.7-6.8,25.8-0.1C-1782.7,9.3-1782.5,9.8-1782.1,10.3z"/>
	<path style="fill:#383838;" d="M-1805.8,14.3c0.4-0.5,0.6-0.9,1-1.2c4.3-4,11-4.6,16-1.4c0.8,0.5,1.4,1.1,2.1,1.7
		c0.4,0.4,0.6,0.9,0.3,1.5c-0.3,0.7-1.1,1-1.7,0.6c-0.3-0.2-0.5-0.4-0.8-0.6c-4.1-3.6-10-3.6-14.1-0.1c-0.2,0.2-0.5,0.4-0.7,0.6
		c-0.4,0.3-0.9,0.3-1.3,0C-1805.4,15.2-1805.5,14.8-1805.8,14.3z"/>
	<path style="fill:#383838;" d="M-1795.9,15.4c1.9,0.1,3.6,0.7,5,2c0.7,0.7,0.7,1.4,0.1,2c-0.5,0.5-1.1,0.4-1.8,0
		c-0.7-0.4-1.3-0.9-2-1.2c-1.5-0.5-3-0.2-4.3,0.8c-0.2,0.2-0.4,0.3-0.6,0.5c-0.6,0.4-1.4,0.3-1.8-0.2c-0.4-0.5-0.4-1.2,0.1-1.8
		C-1799.7,16.1-1798,15.4-1795.9,15.4z"/>
	<g>
		<path style="fill:#585858;" d="M-1724.1,40.9c-0.1-0.2-0.5-0.4-1.2-0.8c-0.7-0.4-1.5-0.8-2.5-1.3c-1-0.5-2.1-0.8-3.3-1.2
			s-2.4-0.5-3.6-0.5c-3.3,0-5,1.1-5,3.3c0,0.7,0.2,1.2,0.5,1.7c0.4,0.5,0.9,0.9,1.6,1.2s1.6,0.7,2.6,1c1.1,0.3,2.3,0.6,3.7,1
			c1.9,0.5,3.7,1.1,5.2,1.7c1.5,0.6,2.9,1.4,3.9,2.3c1.1,0.9,1.9,2,2.5,3.4s0.9,2.9,0.9,4.8c0,2.3-0.4,4.2-1.3,5.7
			c-0.8,1.6-2,2.8-3.4,3.8s-3,1.7-4.8,2.1c-1.8,0.4-3.7,0.7-5.6,0.7c-1.5,0-3-0.1-4.5-0.3s-3.1-0.6-4.5-1s-2.9-1-4.3-1.6
			c-1.4-0.6-2.7-1.3-3.8-2.1l4.1-8.1c0.2,0.2,0.6,0.5,1.5,1.1c0.8,0.5,1.9,1.1,3.1,1.6s2.6,1,4.1,1.4c1.5,0.4,3,0.6,4.6,0.6
			c3.3,0,4.9-1,4.9-3c0-0.8-0.2-1.4-0.7-1.9c-0.5-0.5-1.2-0.9-2-1.3c-0.9-0.4-1.9-0.8-3.1-1.1c-1.2-0.3-2.5-0.7-3.9-1.1
			c-1.8-0.6-3.5-1.2-4.8-1.8c-1.4-0.7-2.5-1.4-3.4-2.3c-0.9-0.9-1.5-1.9-2-3s-0.7-2.5-0.7-4c0-2.1,0.4-4,1.2-5.6
			c0.8-1.6,1.9-3,3.2-4.1c1.4-1.1,2.9-2,4.7-2.5c1.8-0.6,3.7-0.8,5.7-0.8c1.4,0,2.8,0.1,4.1,0.4c1.4,0.3,2.7,0.6,3.9,1
			c1.2,0.4,2.4,0.9,3.5,1.4c1.1,0.5,2.1,1.1,3,1.6L-1724.1,40.9z"/>
		<path style="fill:#585858;" d="M-1714.1,36.2V28h9.1v8.2H-1714.1z M-1714.1,69.3V39.6h9.1v29.7H-1714.1z"/>
		<path style="fill:#585858;" d="M-1651.9,69.3h-9.1V52.6c0-2-0.4-3.4-1.1-4.3c-0.7-0.9-1.6-1.3-2.8-1.3c-0.6,0-1.2,0.1-1.8,0.4
			c-0.6,0.3-1.2,0.6-1.7,1.1c-0.5,0.5-1,1-1.4,1.7c-0.4,0.6-0.8,1.3-1,2.1v17h-9.1V52.6c0-2-0.4-3.4-1.1-4.3
			c-0.7-0.9-1.6-1.3-2.8-1.3c-1.2,0-2.4,0.5-3.5,1.4c-1.2,1-2,2.2-2.5,3.8v17h-9.1V39.6h8.1v5c1.1-1.8,2.6-3.2,4.4-4.1
			c1.9-0.9,4-1.4,6.5-1.4c1.2,0,2.3,0.2,3.3,0.5c0.9,0.3,1.7,0.7,2.4,1.2s1.2,1.1,1.6,1.8s0.7,1.4,0.9,2.2c1.1-1.8,2.6-3.3,4.5-4.3
			c1.8-1,4-1.5,6.3-1.5c1.9,0,3.4,0.3,4.6,1c1.2,0.7,2,1.6,2.7,2.7c0.6,1.1,1.1,2.3,1.3,3.6c0.2,1.3,0.3,2.6,0.3,3.8V69.3z"/>
		<path style="fill:#383838;" d="M-1620.5,36.7c-1.1-1.3-2.6-2.3-4.5-3.1c-1.9-0.8-4-1.2-6.5-1.2c-3.5,0-6.1,0.7-7.8,2
			c-1.6,1.3-2.4,3.2-2.4,5.5c0,1.2,0.2,2.2,0.7,3c0.4,0.8,1.1,1.4,2,2c0.9,0.6,2.1,1.1,3.5,1.5c1.4,0.4,3.1,0.8,5,1.2
			c2.2,0.5,4.1,1,5.8,1.5c1.7,0.6,3.2,1.3,4.4,2.1c1.2,0.8,2.1,1.9,2.8,3.1c0.6,1.2,1,2.7,1,4.5c0,1.8-0.4,3.5-1.1,4.8
			c-0.7,1.4-1.7,2.5-3,3.4c-1.3,0.9-2.8,1.6-4.6,2c-1.8,0.4-3.7,0.7-5.8,0.7c-6.2,0-11.6-1.9-16.1-5.8l2-3.2
			c0.7,0.8,1.6,1.5,2.6,2.2s2.1,1.3,3.3,1.8c1.2,0.5,2.5,0.9,3.9,1.2c1.4,0.3,2.9,0.4,4.4,0.4c3.2,0,5.7-0.6,7.5-1.7
			c1.8-1.2,2.7-2.9,2.7-5.2c0-1.2-0.3-2.3-0.8-3.1c-0.5-0.8-1.3-1.6-2.3-2.2c-1-0.6-2.3-1.2-3.8-1.6c-1.5-0.5-3.3-0.9-5.3-1.4
			c-2.1-0.5-4-1-5.5-1.5c-1.6-0.5-2.9-1.2-4-2c-1.1-0.8-1.9-1.7-2.5-2.9c-0.5-1.1-0.8-2.5-0.8-4.1c0-1.8,0.3-3.5,1-5
			c0.7-1.5,1.7-2.7,3-3.6s2.8-1.7,4.5-2.2c1.7-0.5,3.7-0.8,5.8-0.8c2.7,0,5.1,0.4,7.2,1.2c2.1,0.8,4,2,5.7,3.4L-1620.5,36.7z"/>
		<path style="fill:#383838;" d="M-1597.9,29.2h3.3l16.7,40.2h-4.2l-5.2-12.6h-18l-5.1,12.6h-4.2L-1597.9,29.2z M-1588.2,53.7
			l-8.1-19.9l-8.2,19.9H-1588.2z"/>
		<path style="fill:#383838;" d="M-1545.1,65.8v3.5h-27V29.2h26.5v3.5h-22.5v14.5h19.6v3.3h-19.6v15.3H-1545.1z"/>
		<path style="fill:#383838;" d="M-1537.8,29.2l14.4,35.3l14.3-35.3h4.1l-16.7,40.2h-3.5l-16.7-40.2H-1537.8z"/>
	</g>
</g>
<g>
	<path style="fill:#BFBFBF;" d="M-873.7,28.6c0.4-1.7,0.9-3.3,1.3-4.9c0.4-1.7,1-2.1,2.7-2.1c0.5,0,0.9,0,1.4,0c1.5,0,2,0.5,2.4,1.9
		c0.4,1.3,0.7,2.7,1.1,4c0.1,0.3,0.2,0.7,0.3,1.1c1.5,0,3,0,4.5,0c1.6,0,3.1,0.2,4.6,0.7c3,1,5.2,2.9,6.9,5.6
		c1.4,2.3,2.8,4.5,4.2,6.7c1.1,1.8,2.6,3.1,4.6,3.8c3.1,1.2,4.8,3.7,4.8,7.1c0,2.6-0.1,5.2,0,7.8c0.1,2.9-2.1,6-6.5,5.1
		c1.2-5.3-0.2-9.8-4.8-12.8c-3.9-2.6-8.1-2.6-12-0.2c-4.8,3-6.3,7.5-5.2,13.1c-7.1,0-14.2,0-21.3,0c1.2-5.4-0.2-9.8-4.8-12.9
		c-3.8-2.5-8-2.6-11.9-0.2c-4.9,3-6.4,7.5-5.3,13c-0.1,0.1-0.2,0.2-0.3,0.2c-1.9,0-3.8,0.1-5.8,0c-2.6-0.2-4.4-2.2-4.4-4.8
		c0-1.6,0-3.1,0-4.7c0-0.7-0.2-1-0.8-1.4c-2.8-1.6-4.6-4.1-5.2-7.3c-1-5.4,2.7-10.9,8.1-12c0.7-0.1,1.4-0.2,2-0.2
		c3.6-0.1,6.2-2.5,6.6-6.1c0.1-0.9,0-1.8,0-2.8c-3.1-1-5-3.1-5.3-6.6c0.8,0,1.6-0.1,2.5-0.1c0-1.2,0-2.3,0-3.4c0-0.5,0-1,0-1.5
		c0.1-0.8,0.5-1.3,1.2-1.2c0.7,0,1.2,0.5,1.2,1.3c0,0.6,0,1.2,0,1.8c0,1,0,2,0,3c1.3,0,2.5,0,3.8,0c0-1.4,0-2.8,0-4.2
		c0-0.4,0-0.7,0.1-1.1c0.1-0.6,0.6-0.9,1.2-0.9c0.6,0,1,0.3,1.1,0.9c0.1,0.3,0.1,0.7,0.1,1.1c0,1.4,0,2.7,0,4.2
		c0.8,0,1.6,0.1,2.3,0.1c0.4,2.6-1.5,5.1-5.1,6.6c0,1.1,0,2.2-0.2,3.3c-0.5,4.8-4.2,8.3-9,8.6c-0.5,0-0.9,0-1.4,0.1
		c-2.9,0.4-5.4,2.6-6.1,5.5c-0.8,3,0.4,6.1,2.8,7.9c0.1,0.1,0.3,0.2,0.5,0.3c0.1-0.2,0.2-0.4,0.3-0.6c1.8-3.9,4.8-6.1,9.1-6.3
		c2.2-0.1,4.4-0.3,6.3-1.3c1.4-0.7,2.8-1.5,4-2.4c2.9-2.3,5.7-4.8,8.4-7.2c4.1-3.6,8.8-5.4,14.2-5.5
		C-874.2,28.7-874,28.6-873.7,28.6z M-870.7,31.2c-1.2,0-2.2,0-3.3,0c-4.3,0-8.2,1.4-11.5,4.2c-2.5,2.1-5,4.3-7.5,6.4
		c-0.2,0.1-0.3,0.3-0.5,0.6c7.6,0,15.2,0,22.7,0C-870.7,38.7-870.7,35-870.7,31.2z M-867.5,42.5c6.6,0,13.2,0,19.9,0
		c-1.4-2.3-2.7-4.4-4-6.5c-2-3.1-4.9-4.7-8.6-4.8c-2.1,0-4.1,0-6.2,0c-0.3,0-0.6,0-1,0.1C-867.5,35-867.5,38.7-867.5,42.5z"/>
	<path style="fill:#FFFFFF;" d="M-852.4,53.2c5.1,0,9.2,4,9.2,9.1c0,5-4.1,9.2-9.1,9.1c-5.1,0-9.1-4.1-9.1-9.2
		C-861.5,57.2-857.5,53.2-852.4,53.2z M-848.6,62.3c0-2.1-1.7-3.8-3.8-3.8c-2.1,0-3.8,1.8-3.8,3.8c0,2.1,1.7,3.7,3.8,3.7
		C-850.3,66.1-848.6,64.4-848.6,62.3z"/>
	<path style="fill:#FFFFFF;" d="M-904.8,62.2c0-5.1,4.1-9.1,9.2-9c5,0,9,4.1,9.1,9.1c0,5-4.1,9.2-9.2,9.1
		C-900.8,71.4-904.8,67.3-904.8,62.2z M-891.9,62.3c0-2.1-1.7-3.8-3.8-3.8c-2,0-3.7,1.7-3.8,3.7c0,2.1,1.7,3.8,3.8,3.8
		C-893.6,66.1-891.9,64.4-891.9,62.3z"/>
	<path style="fill:#FFFFFF;" d="M-855.2,10.3c-0.3,0.4-0.5,0.9-0.8,1.1c-0.4,0.2-0.9,0.1-1.3,0c-0.3-0.1-0.5-0.4-0.7-0.6
		c-6.3-5.8-15.8-5.8-22.2,0c-0.2,0.2-0.4,0.4-0.7,0.6c-0.5,0.4-1.3,0.3-1.7-0.2c-0.4-0.4-0.4-1.1-0.1-1.6c0.1-0.2,0.3-0.4,0.5-0.6
		c7.1-6.8,18.7-6.8,25.8-0.1C-855.8,9.3-855.5,9.8-855.2,10.3z"/>
	<path style="fill:#FFFFFF;" d="M-878.9,14.3c0.4-0.5,0.6-0.9,1-1.2c4.3-4,11-4.6,16-1.4c0.8,0.5,1.4,1.1,2.1,1.7
		c0.4,0.4,0.6,0.9,0.3,1.5c-0.3,0.7-1.1,1-1.7,0.6c-0.3-0.2-0.5-0.4-0.8-0.6c-4.1-3.6-10-3.6-14.1-0.1c-0.2,0.2-0.5,0.4-0.7,0.6
		c-0.4,0.3-0.9,0.3-1.3,0C-878.4,15.2-878.6,14.8-878.9,14.3z"/>
	<path style="fill:#FFFFFF;" d="M-869,15.4c1.9,0.1,3.6,0.7,5,2c0.7,0.7,0.7,1.4,0.1,2c-0.5,0.5-1.1,0.4-1.8,0
		c-0.7-0.4-1.3-0.9-2-1.2c-1.5-0.5-3-0.2-4.3,0.8c-0.2,0.2-0.4,0.3-0.6,0.5c-0.6,0.4-1.4,0.3-1.8-0.2c-0.4-0.5-0.4-1.2,0.1-1.8
		C-872.8,16.1-871.1,15.4-869,15.4z"/>
	<g>
		<path style="fill:#BFBFBF;" d="M-797.1,40.9c-0.1-0.2-0.5-0.4-1.2-0.8c-0.7-0.4-1.5-0.8-2.5-1.3c-1-0.5-2.1-0.8-3.3-1.2
			c-1.2-0.3-2.4-0.5-3.6-0.5c-3.3,0-5,1.1-5,3.3c0,0.7,0.2,1.2,0.5,1.7c0.4,0.5,0.9,0.9,1.6,1.2c0.7,0.4,1.6,0.7,2.6,1
			c1.1,0.3,2.3,0.6,3.7,1c1.9,0.5,3.7,1.1,5.2,1.7c1.5,0.6,2.9,1.4,3.9,2.3c1.1,0.9,1.9,2,2.5,3.4c0.6,1.3,0.9,2.9,0.9,4.8
			c0,2.3-0.4,4.2-1.3,5.7s-2,2.8-3.4,3.8c-1.4,1-3,1.7-4.8,2.1c-1.8,0.4-3.7,0.7-5.6,0.7c-1.5,0-3-0.1-4.5-0.3
			c-1.5-0.2-3.1-0.6-4.5-1c-1.5-0.4-2.9-1-4.3-1.6s-2.7-1.3-3.8-2.1l4.1-8.1c0.2,0.2,0.6,0.5,1.5,1.1c0.8,0.5,1.9,1.1,3.1,1.6
			c1.2,0.5,2.6,1,4.1,1.4c1.5,0.4,3,0.6,4.6,0.6c3.3,0,4.9-1,4.9-3c0-0.8-0.2-1.4-0.7-1.9s-1.2-0.9-2-1.3c-0.9-0.4-1.9-0.8-3.1-1.1
			c-1.2-0.3-2.5-0.7-3.9-1.1c-1.8-0.6-3.5-1.2-4.8-1.8c-1.4-0.7-2.5-1.4-3.4-2.3c-0.9-0.9-1.5-1.9-2-3c-0.4-1.1-0.7-2.5-0.7-4
			c0-2.1,0.4-4,1.2-5.6c0.8-1.6,1.9-3,3.2-4.1c1.4-1.1,2.9-2,4.7-2.5c1.8-0.6,3.7-0.8,5.7-0.8c1.4,0,2.8,0.1,4.1,0.4
			c1.4,0.3,2.7,0.6,3.9,1s2.4,0.9,3.5,1.4c1.1,0.5,2.1,1.1,3,1.6L-797.1,40.9z"/>
		<path style="fill:#BFBFBF;" d="M-787.2,36.2V28h9.1v8.2H-787.2z M-787.2,69.3V39.6h9.1v29.7H-787.2z"/>
		<path style="fill:#BFBFBF;" d="M-725,69.3h-9.1V52.6c0-2-0.4-3.4-1.1-4.3c-0.7-0.9-1.6-1.3-2.8-1.3c-0.6,0-1.2,0.1-1.8,0.4
			c-0.6,0.3-1.2,0.6-1.7,1.1c-0.5,0.5-1,1-1.4,1.7c-0.4,0.6-0.8,1.3-1,2.1v17h-9.1V52.6c0-2-0.4-3.4-1.1-4.3
			c-0.7-0.9-1.6-1.3-2.8-1.3c-1.2,0-2.4,0.5-3.5,1.4c-1.2,1-2,2.2-2.5,3.8v17h-9.1V39.6h8.1v5c1.1-1.8,2.6-3.2,4.4-4.1
			c1.9-0.9,4-1.4,6.5-1.4c1.2,0,2.3,0.2,3.3,0.5c0.9,0.3,1.7,0.7,2.4,1.2c0.7,0.5,1.2,1.1,1.6,1.8c0.4,0.7,0.7,1.4,0.9,2.2
			c1.1-1.8,2.6-3.3,4.5-4.3c1.8-1,4-1.5,6.3-1.5c1.9,0,3.4,0.3,4.6,1c1.2,0.7,2,1.6,2.7,2.7c0.6,1.1,1.1,2.3,1.3,3.6
			c0.2,1.3,0.3,2.6,0.3,3.8V69.3z"/>
		<path style="fill:#FFFFFF;" d="M-693.6,36.7c-1.1-1.3-2.6-2.3-4.5-3.1c-1.9-0.8-4-1.2-6.5-1.2c-3.5,0-6.1,0.7-7.8,2
			c-1.6,1.3-2.4,3.2-2.4,5.5c0,1.2,0.2,2.2,0.7,3c0.4,0.8,1.1,1.4,2,2c0.9,0.6,2.1,1.1,3.5,1.5c1.4,0.4,3.1,0.8,5,1.2
			c2.2,0.5,4.1,1,5.8,1.5c1.7,0.6,3.2,1.3,4.4,2.1c1.2,0.8,2.1,1.9,2.8,3.1c0.6,1.2,1,2.7,1,4.5c0,1.8-0.4,3.5-1.1,4.8
			c-0.7,1.4-1.7,2.5-3,3.4c-1.3,0.9-2.8,1.6-4.6,2c-1.8,0.4-3.7,0.7-5.8,0.7c-6.2,0-11.6-1.9-16.1-5.8l2-3.2
			c0.7,0.8,1.6,1.5,2.6,2.2c1,0.7,2.1,1.3,3.3,1.8c1.2,0.5,2.5,0.9,3.9,1.2s2.9,0.4,4.4,0.4c3.2,0,5.7-0.6,7.5-1.7
			c1.8-1.2,2.7-2.9,2.7-5.2c0-1.2-0.3-2.3-0.8-3.1c-0.5-0.8-1.3-1.6-2.3-2.2c-1-0.6-2.3-1.2-3.8-1.6c-1.5-0.5-3.3-0.9-5.3-1.4
			c-2.1-0.5-4-1-5.5-1.5c-1.6-0.5-2.9-1.2-4-2c-1.1-0.8-1.9-1.7-2.5-2.9s-0.8-2.5-0.8-4.1c0-1.8,0.3-3.5,1-5c0.7-1.5,1.7-2.7,3-3.6
			c1.3-1,2.8-1.7,4.5-2.2c1.7-0.5,3.7-0.8,5.8-0.8c2.7,0,5.1,0.4,7.2,1.2c2.1,0.8,4,2,5.7,3.4L-693.6,36.7z"/>
		<path style="fill:#FFFFFF;" d="M-671,29.2h3.3l16.7,40.2h-4.2l-5.2-12.6h-18l-5.1,12.6h-4.2L-671,29.2z M-661.2,53.7l-8.1-19.9
			l-8.2,19.9H-661.2z"/>
		<path style="fill:#FFFFFF;" d="M-618.2,65.8v3.5h-27V29.2h26.5v3.5h-22.5v14.5h19.6v3.3h-19.6v15.3H-618.2z"/>
		<path style="fill:#FFFFFF;" d="M-610.9,29.2l14.4,35.3l14.3-35.3h4.1l-16.7,40.2h-3.5L-615,29.2H-610.9z"/>
	</g>
</g>
<g>
	<g>
		<path d="M-2962.1,310.1c0.5,0.3,1.2,0.5,1.9,0.5c1.1,0,1.7-0.6,1.7-1.4c0-0.8-0.4-1.2-1.5-1.6c-1.3-0.5-2.1-1.2-2.1-2.3
			c0-1.3,1-2.2,2.6-2.2c0.8,0,1.4,0.2,1.8,0.4l-0.3,0.9c-0.3-0.1-0.8-0.4-1.5-0.4c-1.1,0-1.5,0.7-1.5,1.2c0,0.8,0.5,1.1,1.6,1.6
			c1.4,0.5,2.1,1.2,2.1,2.4c0,1.2-0.9,2.3-2.8,2.3c-0.8,0-1.6-0.2-2.1-0.5L-2962.1,310.1z"/>
		<path d="M-2954.9,303.9c0,0.4-0.3,0.6-0.7,0.6c-0.4,0-0.6-0.3-0.6-0.6c0-0.4,0.3-0.7,0.7-0.7
			C-2955.1,303.2-2954.9,303.5-2954.9,303.9z M-2956.1,311.3v-5.8h1.1v5.8H-2956.1z"/>
		<path d="M-2953.3,307.1c0-0.6,0-1.1,0-1.6h0.9l0,0.9h0c0.3-0.6,0.9-1.1,1.8-1.1c0.8,0,1.4,0.5,1.6,1.2h0c0.2-0.3,0.4-0.6,0.6-0.8
			c0.3-0.3,0.7-0.4,1.3-0.4c0.8,0,1.9,0.5,1.9,2.5v3.4h-1V308c0-1.1-0.4-1.8-1.3-1.8c-0.6,0-1.1,0.4-1.2,1c0,0.1-0.1,0.3-0.1,0.5
			v3.6h-1v-3.5c0-0.9-0.4-1.6-1.2-1.6c-0.7,0-1.1,0.5-1.3,1.1c-0.1,0.2-0.1,0.3-0.1,0.5v3.5h-1V307.1z"/>
		<path d="M-2943.4,310.1c0.5,0.3,1.2,0.5,1.9,0.5c1.1,0,1.7-0.6,1.7-1.4c0-0.8-0.4-1.2-1.5-1.6c-1.3-0.5-2.1-1.2-2.1-2.3
			c0-1.3,1-2.2,2.6-2.2c0.8,0,1.4,0.2,1.8,0.4l-0.3,0.9c-0.3-0.1-0.8-0.4-1.5-0.4c-1.1,0-1.5,0.7-1.5,1.2c0,0.8,0.5,1.1,1.6,1.6
			c1.4,0.5,2.1,1.2,2.1,2.4c0,1.2-0.9,2.3-2.8,2.3c-0.8,0-1.6-0.2-2.1-0.5L-2943.4,310.1z"/>
		<path d="M-2936,308.8l-0.8,2.5h-1.1l2.7-8.1h1.3l2.8,8.1h-1.1l-0.9-2.5H-2936z M-2933.3,308l-0.8-2.3c-0.2-0.5-0.3-1-0.4-1.5h0
			c-0.1,0.5-0.3,1-0.4,1.5l-0.8,2.3H-2933.3z"/>
		<path d="M-2925.8,307.5h-3.1v2.9h3.5v0.9h-4.5v-8.1h4.4v0.9h-3.3v2.6h3.1V307.5z"/>
		<path d="M-2922.2,311.3l-2.6-8.1h1.1l1.3,4c0.3,1.1,0.6,2.1,0.9,3h0c0.2-0.9,0.6-2,0.9-3l1.4-4h1.1l-2.9,8.1H-2922.2z"/>
		<path d="M-2914.7,303.2h1v7.2h3.5v0.9h-4.5V303.2z"/>
		<path d="M-2904,308.4c0,2.1-1.5,3.1-2.9,3.1c-1.6,0-2.8-1.2-2.8-3c0-1.9,1.3-3.1,2.9-3.1C-2905.1,305.4-2904,306.6-2904,308.4z
			 M-2908.6,308.4c0,1.3,0.7,2.2,1.8,2.2c1,0,1.8-0.9,1.8-2.3c0-1-0.5-2.2-1.7-2.2C-2908.1,306.2-2908.6,307.3-2908.6,308.4z"/>
		<path d="M-2897.7,305.5c0,0.4,0,0.9,0,1.6v3.4c0,1.3-0.3,2.1-0.8,2.7c-0.6,0.5-1.4,0.7-2.1,0.7c-0.7,0-1.5-0.2-1.9-0.5l0.3-0.8
			c0.4,0.2,1,0.5,1.7,0.5c1.1,0,1.9-0.6,1.9-2v-0.6h0c-0.3,0.5-0.9,1-1.8,1c-1.4,0-2.5-1.2-2.5-2.8c0-2,1.3-3.1,2.6-3.1
			c1,0,1.6,0.5,1.8,1h0l0-0.9H-2897.7z M-2898.7,307.8c0-0.2,0-0.3-0.1-0.5c-0.2-0.6-0.7-1.1-1.5-1.1c-1,0-1.7,0.9-1.7,2.2
			c0,1.1,0.6,2.1,1.7,2.1c0.6,0,1.2-0.4,1.5-1.1c0.1-0.2,0.1-0.4,0.1-0.6V307.8z"/>
		<path d="M-2890.7,308.4c0,2.1-1.5,3.1-2.9,3.1c-1.6,0-2.8-1.2-2.8-3c0-1.9,1.3-3.1,2.9-3.1
			C-2891.8,305.4-2890.7,306.6-2890.7,308.4z M-2895.3,308.4c0,1.3,0.7,2.2,1.8,2.2c1,0,1.8-0.9,1.8-2.3c0-1-0.5-2.2-1.7-2.2
			C-2894.8,306.2-2895.3,307.3-2895.3,308.4z"/>
	</g>
	<g>
		<path d="M-2266,303.3c0.5-0.1,1.3-0.2,2-0.2c1.1,0,1.8,0.2,2.3,0.7c0.4,0.4,0.6,0.9,0.6,1.5c0,1.1-0.7,1.8-1.5,2.1v0
			c0.6,0.2,1,0.8,1.2,1.6c0.3,1.1,0.5,1.9,0.6,2.2h-1.1c-0.1-0.2-0.3-0.9-0.5-1.9c-0.2-1.1-0.7-1.5-1.6-1.6h-1v3.5h-1V303.3z
			 M-2265,307h1.1c1.1,0,1.8-0.6,1.8-1.5c0-1-0.8-1.5-1.9-1.5c-0.5,0-0.9,0-1,0.1V307z"/>
		<path d="M-2253.4,311c-0.5,0.2-1.4,0.4-2.5,0.4c-1.2,0-2.2-0.3-3-1.1c-0.7-0.7-1.1-1.8-1.1-3c0-2.4,1.7-4.2,4.4-4.2
			c0.9,0,1.7,0.2,2,0.4l-0.3,0.9c-0.4-0.2-1-0.3-1.8-0.3c-2,0-3.3,1.2-3.3,3.3c0,2.1,1.2,3.3,3.1,3.3c0.7,0,1.2-0.1,1.4-0.2v-2.4
			h-1.6v-0.8h2.7V311z"/>
		<path d="M-2251.8,303.3c0.5-0.1,1.2-0.2,1.9-0.2c1,0,1.7,0.2,2.2,0.6c0.4,0.3,0.7,0.8,0.7,1.4c0,0.8-0.5,1.5-1.4,1.8v0
			c0.8,0.2,1.7,0.8,1.7,2c0,0.7-0.3,1.2-0.7,1.6c-0.6,0.5-1.5,0.8-2.8,0.8c-0.7,0-1.3,0-1.6-0.1V303.3z M-2250.8,306.7h0.9
			c1.1,0,1.8-0.6,1.8-1.4c0-0.9-0.7-1.3-1.8-1.3c-0.5,0-0.8,0-0.9,0.1V306.7z M-2250.8,310.5c0.2,0,0.5,0,0.9,0
			c1.1,0,2.1-0.4,2.1-1.6c0-1.1-0.9-1.6-2.1-1.6h-0.9V310.5z"/>
	</g>
</g>
<g>
	<path style="fill:#237B34;" d="M52,28.5c0.4-1.7,0.9-3.3,1.3-4.9c0.4-1.7,1-2.1,2.7-2.1c0.5,0,0.9,0,1.4,0c1.5,0,2,0.5,2.4,1.9
		c0.4,1.3,0.7,2.7,1.1,4c0.1,0.3,0.2,0.7,0.3,1.1c1.5,0,3,0,4.5,0c1.6,0,3.1,0.2,4.6,0.7c3,1,5.2,2.9,6.9,5.6
		c1.4,2.3,2.8,4.5,4.2,6.7c1.1,1.8,2.6,3.1,4.6,3.8c3.1,1.2,4.8,3.7,4.8,7.1c0,2.6-0.1,5.2,0,7.8c0.1,2.9-2.1,6-6.5,5.1
		c1.2-5.3-0.2-9.8-4.8-12.8c-3.9-2.6-8.1-2.6-12-0.2c-4.8,3-6.3,7.5-5.2,13.1c-7.1,0-14.2,0-21.3,0c1.2-5.4-0.2-9.8-4.8-12.9
		c-3.8-2.5-8-2.6-11.9-0.2c-4.9,3-6.4,7.5-5.3,13c-0.1,0.1-0.2,0.2-0.3,0.2c-1.9,0-3.8,0.1-5.8,0c-2.6-0.2-4.4-2.2-4.4-4.8
		c0-1.6,0-3.1,0-4.7c0-0.7-0.2-1-0.8-1.4c-2.8-1.6-4.6-4.1-5.2-7.3c-1-5.4,2.7-10.9,8.1-12c0.7-0.1,1.4-0.2,2-0.2
		c3.6-0.1,6.2-2.5,6.6-6.1c0.1-0.9,0-1.8,0-2.8c-3.1-1-5-3.1-5.3-6.6c0.8,0,1.6-0.1,2.5-0.1c0-1.2,0-2.3,0-3.4c0-0.5,0-1,0-1.5
		c0.1-0.8,0.5-1.3,1.2-1.2c0.7,0,1.2,0.5,1.2,1.3c0,0.6,0,1.2,0,1.8c0,1,0,2,0,3c1.3,0,2.5,0,3.8,0c0-1.4,0-2.8,0-4.2
		c0-0.4,0-0.7,0.1-1.1c0.1-0.6,0.6-0.9,1.2-0.9c0.6,0,1,0.3,1.1,0.9c0.1,0.3,0.1,0.7,0.1,1.1c0,1.4,0,2.7,0,4.2
		c0.8,0,1.6,0.1,2.3,0.1c0.4,2.6-1.5,5.1-5.1,6.6c0,1.1,0,2.2-0.2,3.3c-0.5,4.8-4.2,8.3-9,8.6c-0.5,0-0.9,0-1.4,0.1
		c-2.9,0.4-5.4,2.6-6.1,5.5c-0.8,3,0.4,6.1,2.8,7.9c0.1,0.1,0.3,0.2,0.5,0.3c0.1-0.2,0.2-0.4,0.3-0.6c1.8-3.9,4.8-6.1,9.1-6.3
		c2.2-0.1,4.4-0.3,6.3-1.3c1.4-0.7,2.8-1.5,4-2.4c2.9-2.3,5.7-4.8,8.4-7.2c4.1-3.6,8.8-5.4,14.2-5.5C51.5,28.5,51.7,28.5,52,28.5z
		 M55,31.1c-1.2,0-2.2,0-3.3,0c-4.3,0-8.2,1.4-11.5,4.2c-2.5,2.1-5,4.3-7.5,6.4c-0.2,0.1-0.3,0.3-0.5,0.6c7.6,0,15.2,0,22.7,0
		C55,38.5,55,34.9,55,31.1z M58.1,42.3c6.6,0,13.2,0,19.9,0c-1.4-2.3-2.7-4.4-4-6.5c-2-3.1-4.9-4.7-8.6-4.8c-2.1,0-4.1,0-6.2,0
		c-0.3,0-0.6,0-1,0.1C58.1,34.9,58.1,38.5,58.1,42.3z"/>
	<path style="fill:#64B661;" d="M73.2,53c5.1,0,9.2,4,9.2,9.1c0,5-4.1,9.2-9.1,9.1c-5.1,0-9.1-4.1-9.1-9.2C64.2,57,68.2,53,73.2,53z
		 M77.1,62.1c0-2.1-1.7-3.8-3.8-3.8c-2.1,0-3.8,1.8-3.8,3.8c0,2.1,1.7,3.7,3.8,3.7C75.4,65.9,77.1,64.2,77.1,62.1z"/>
	<path style="fill:#64B661;" d="M20.9,62.1c0-5.1,4.1-9.1,9.2-9c5,0,9,4.1,9.1,9.1c0,5-4.1,9.2-9.2,9.1
		C24.9,71.2,20.9,67.1,20.9,62.1z M33.7,62.1c0-2.1-1.7-3.8-3.8-3.8c-2,0-3.7,1.7-3.8,3.7c0,2.1,1.7,3.8,3.8,3.8
		C32,65.9,33.8,64.2,33.7,62.1z"/>
	<path style="fill:#415052;" d="M70.5,10.2c-0.3,0.4-0.5,0.9-0.8,1.1c-0.4,0.2-0.9,0.1-1.3,0c-0.3-0.1-0.5-0.4-0.7-0.6
		c-6.3-5.8-15.8-5.8-22.2,0c-0.2,0.2-0.4,0.4-0.7,0.6c-0.5,0.4-1.3,0.3-1.7-0.2c-0.4-0.4-0.4-1.1-0.1-1.6c0.1-0.2,0.3-0.4,0.5-0.6
		c7.1-6.8,18.7-6.8,25.8-0.1C69.9,9.2,70.1,9.7,70.5,10.2z"/>
	<path style="fill:#415052;" d="M46.8,14.2c0.4-0.5,0.6-0.9,1-1.2c4.3-4,11-4.6,16-1.4c0.8,0.5,1.4,1.1,2.1,1.7
		c0.4,0.4,0.6,0.9,0.3,1.5c-0.3,0.7-1.1,1-1.7,0.6c-0.3-0.2-0.5-0.4-0.8-0.6c-4.1-3.6-10-3.6-14.1-0.1c-0.2,0.2-0.5,0.4-0.7,0.6
		c-0.4,0.3-0.9,0.3-1.3,0C47.2,15,47.1,14.6,46.8,14.2z"/>
	<path style="fill:#415052;" d="M56.7,15.2c1.9,0.1,3.6,0.7,5,2c0.7,0.7,0.7,1.4,0.1,2c-0.5,0.5-1.1,0.4-1.8,0
		c-0.7-0.4-1.3-0.9-2-1.2c-1.5-0.5-3-0.2-4.3,0.8c-0.2,0.2-0.4,0.3-0.6,0.5c-0.6,0.4-1.4,0.3-1.8-0.2c-0.4-0.5-0.4-1.2,0.1-1.8
		C52.9,15.9,54.6,15.3,56.7,15.2z"/>
	<g>
		<path style="fill:#237B34;" d="M128.5,40.8c-0.1-0.2-0.5-0.4-1.2-0.8c-0.7-0.4-1.5-0.8-2.5-1.3c-1-0.5-2.1-0.8-3.3-1.2
			s-2.4-0.5-3.6-0.5c-3.3,0-5,1.1-5,3.3c0,0.7,0.2,1.2,0.5,1.7c0.4,0.5,0.9,0.9,1.6,1.2c0.7,0.4,1.6,0.7,2.6,1
			c1.1,0.3,2.3,0.6,3.7,1c1.9,0.5,3.7,1.1,5.2,1.7c1.5,0.6,2.9,1.4,3.9,2.3c1.1,0.9,1.9,2,2.5,3.4s0.9,2.9,0.9,4.8
			c0,2.3-0.4,4.2-1.3,5.7c-0.8,1.6-2,2.8-3.4,3.8c-1.4,1-3,1.7-4.8,2.1c-1.8,0.4-3.7,0.7-5.6,0.7c-1.5,0-3-0.1-4.5-0.3
			s-3.1-0.6-4.5-1c-1.5-0.4-2.9-1-4.3-1.6s-2.7-1.3-3.8-2.1l4.1-8.1c0.2,0.2,0.6,0.5,1.5,1.1c0.8,0.5,1.9,1.1,3.1,1.6s2.6,1,4.1,1.4
			c1.5,0.4,3,0.6,4.6,0.6c3.3,0,4.9-1,4.9-3c0-0.8-0.2-1.4-0.7-1.9s-1.2-0.9-2-1.3c-0.9-0.4-1.9-0.8-3.1-1.1
			c-1.2-0.3-2.5-0.7-3.9-1.1c-1.8-0.6-3.5-1.2-4.8-1.8c-1.4-0.7-2.5-1.4-3.4-2.3c-0.9-0.9-1.5-1.9-2-3s-0.7-2.5-0.7-4
			c0-2.1,0.4-4,1.2-5.6c0.8-1.6,1.9-3,3.2-4.1c1.4-1.1,2.9-2,4.7-2.5c1.8-0.6,3.7-0.8,5.7-0.8c1.4,0,2.8,0.1,4.1,0.4
			c1.4,0.3,2.7,0.6,3.9,1s2.4,0.9,3.5,1.4c1.1,0.5,2.1,1.1,3,1.6L128.5,40.8z"/>
		<path style="fill:#237B34;" d="M138.5,36.1v-8.2h9.1v8.2H138.5z M138.5,69.2V39.5h9.1v29.7H138.5z"/>
		<path style="fill:#237B34;" d="M200.7,69.2h-9.1V52.5c0-2-0.4-3.4-1.1-4.3c-0.7-0.9-1.6-1.3-2.8-1.3c-0.6,0-1.2,0.1-1.8,0.4
			c-0.6,0.3-1.2,0.6-1.7,1.1c-0.5,0.5-1,1-1.4,1.7c-0.4,0.6-0.8,1.3-1,2.1v17h-9.1V52.5c0-2-0.4-3.4-1.1-4.3
			c-0.7-0.9-1.6-1.3-2.8-1.3c-1.2,0-2.4,0.5-3.5,1.4c-1.2,1-2,2.2-2.5,3.8v17h-9.1V39.5h8.1v5c1.1-1.8,2.6-3.2,4.4-4.1
			c1.9-0.9,4-1.4,6.5-1.4c1.2,0,2.3,0.2,3.3,0.5c0.9,0.3,1.7,0.7,2.4,1.2c0.7,0.5,1.2,1.1,1.6,1.8c0.4,0.7,0.7,1.4,0.9,2.2
			c1.1-1.8,2.6-3.3,4.5-4.3c1.8-1,4-1.5,6.3-1.5c1.9,0,3.4,0.3,4.6,1c1.2,0.7,2,1.6,2.7,2.7c0.6,1.1,1.1,2.3,1.3,3.6
			c0.2,1.3,0.3,2.6,0.3,3.8V69.2z"/>
		<path style="fill:#415052;" d="M232.1,36.5c-1.1-1.3-2.6-2.3-4.5-3.1c-1.9-0.8-4-1.2-6.5-1.2c-3.5,0-6.1,0.7-7.8,2
			c-1.6,1.3-2.4,3.2-2.4,5.5c0,1.2,0.2,2.2,0.7,3c0.4,0.8,1.1,1.4,2,2c0.9,0.6,2.1,1.1,3.5,1.5c1.4,0.4,3.1,0.8,5,1.2
			c2.2,0.5,4.1,1,5.8,1.5c1.7,0.6,3.2,1.3,4.4,2.1s2.1,1.9,2.8,3.1c0.6,1.2,1,2.7,1,4.5c0,1.8-0.4,3.5-1.1,4.8
			c-0.7,1.4-1.7,2.5-3,3.4c-1.3,0.9-2.8,1.6-4.6,2c-1.8,0.4-3.7,0.7-5.8,0.7c-6.2,0-11.6-1.9-16.1-5.8l2-3.2
			c0.7,0.8,1.6,1.5,2.6,2.2s2.1,1.3,3.3,1.8c1.2,0.5,2.5,0.9,3.9,1.2s2.9,0.4,4.4,0.4c3.2,0,5.7-0.6,7.5-1.7
			c1.8-1.2,2.7-2.9,2.7-5.2c0-1.2-0.3-2.3-0.8-3.1c-0.5-0.8-1.3-1.6-2.3-2.2c-1-0.6-2.3-1.2-3.8-1.6c-1.5-0.5-3.3-0.9-5.3-1.4
			c-2.1-0.5-4-1-5.5-1.5c-1.6-0.5-2.9-1.2-4-2c-1.1-0.8-1.9-1.7-2.5-2.9c-0.5-1.1-0.8-2.5-0.8-4.1c0-1.8,0.3-3.5,1-5
			c0.7-1.5,1.7-2.7,3-3.6s2.8-1.7,4.5-2.2c1.7-0.5,3.7-0.8,5.8-0.8c2.7,0,5.1,0.4,7.2,1.2c2.1,0.8,4,2,5.7,3.4L232.1,36.5z"/>
		<path style="fill:#415052;" d="M254.7,29h3.3l16.7,40.2h-4.2l-5.2-12.6h-18l-5.1,12.6h-4.2L254.7,29z M264.4,53.5l-8.1-19.9
			l-8.2,19.9H264.4z"/>
		<path style="fill:#415052;" d="M307.5,65.7v3.5h-27V29H307v3.5h-22.5V47h19.6v3.3h-19.6v15.3H307.5z"/>
		<path style="fill:#415052;" d="M314.8,29l14.4,35.2L343.5,29h4.1l-16.7,40.2h-3.5L310.7,29H314.8z"/>
	</g>
</g>
<g>
	<g>
		<path d="M-2035.2,310.1c0.5,0.3,1.2,0.5,1.9,0.5c1.1,0,1.7-0.6,1.7-1.4c0-0.8-0.4-1.2-1.5-1.6c-1.3-0.5-2.1-1.2-2.1-2.3
			c0-1.3,1-2.2,2.6-2.2c0.8,0,1.4,0.2,1.8,0.4l-0.3,0.9c-0.3-0.1-0.8-0.4-1.5-0.4c-1.1,0-1.5,0.7-1.5,1.2c0,0.8,0.5,1.1,1.6,1.6
			c1.4,0.5,2.1,1.2,2.1,2.4c0,1.2-0.9,2.3-2.8,2.3c-0.8,0-1.6-0.2-2.1-0.5L-2035.2,310.1z"/>
		<path d="M-2028,303.9c0,0.4-0.3,0.6-0.7,0.6c-0.4,0-0.6-0.3-0.6-0.6c0-0.4,0.3-0.7,0.7-0.7C-2028.2,303.2-2028,303.5-2028,303.9z
			 M-2029.1,311.3v-5.8h1.1v5.8H-2029.1z"/>
		<path d="M-2026.3,307.1c0-0.6,0-1.1,0-1.6h0.9l0,0.9h0c0.3-0.6,0.9-1.1,1.8-1.1c0.8,0,1.4,0.5,1.6,1.2h0c0.2-0.3,0.4-0.6,0.6-0.8
			c0.3-0.3,0.7-0.4,1.3-0.4c0.8,0,1.9,0.5,1.9,2.5v3.4h-1V308c0-1.1-0.4-1.8-1.3-1.8c-0.6,0-1.1,0.4-1.2,1c0,0.1-0.1,0.3-0.1,0.5
			v3.6h-1v-3.5c0-0.9-0.4-1.6-1.2-1.6c-0.7,0-1.1,0.5-1.3,1.1c-0.1,0.2-0.1,0.3-0.1,0.5v3.5h-1V307.1z"/>
		<path d="M-2016.4,310.1c0.5,0.3,1.2,0.5,1.9,0.5c1.1,0,1.7-0.6,1.7-1.4c0-0.8-0.4-1.2-1.5-1.6c-1.3-0.5-2.1-1.2-2.1-2.3
			c0-1.3,1-2.2,2.6-2.2c0.8,0,1.4,0.2,1.8,0.4l-0.3,0.9c-0.3-0.1-0.8-0.4-1.5-0.4c-1.1,0-1.5,0.7-1.5,1.2c0,0.8,0.5,1.1,1.6,1.6
			c1.4,0.5,2.1,1.2,2.1,2.4c0,1.2-0.9,2.3-2.8,2.3c-0.8,0-1.6-0.2-2.1-0.5L-2016.4,310.1z"/>
		<path d="M-2009.1,308.8l-0.8,2.5h-1.1l2.7-8.1h1.3l2.8,8.1h-1.1l-0.9-2.5H-2009.1z M-2006.4,308l-0.8-2.3c-0.2-0.5-0.3-1-0.4-1.5
			h0c-0.1,0.5-0.3,1-0.4,1.5l-0.8,2.3H-2006.4z"/>
		<path d="M-1998.8,307.5h-3.1v2.9h3.5v0.9h-4.5v-8.1h4.4v0.9h-3.3v2.6h3.1V307.5z"/>
		<path d="M-1995.2,311.3l-2.6-8.1h1.1l1.3,4c0.3,1.1,0.6,2.1,0.9,3h0c0.2-0.9,0.6-2,0.9-3l1.4-4h1.1l-2.9,8.1H-1995.2z"/>
		<path d="M-1987.8,303.2h1v7.2h3.5v0.9h-4.5V303.2z"/>
		<path d="M-1977.1,308.4c0,2.1-1.5,3.1-2.9,3.1c-1.6,0-2.8-1.2-2.8-3c0-1.9,1.3-3.1,2.9-3.1
			C-1978.2,305.4-1977.1,306.6-1977.1,308.4z M-1981.7,308.4c0,1.3,0.7,2.2,1.8,2.2c1,0,1.8-0.9,1.8-2.3c0-1-0.5-2.2-1.7-2.2
			S-1981.7,307.3-1981.7,308.4z"/>
		<path d="M-1970.7,305.5c0,0.4,0,0.9,0,1.6v3.4c0,1.3-0.3,2.1-0.8,2.7c-0.6,0.5-1.4,0.7-2.1,0.7c-0.7,0-1.5-0.2-1.9-0.5l0.3-0.8
			c0.4,0.2,1,0.5,1.7,0.5c1.1,0,1.9-0.6,1.9-2v-0.6h0c-0.3,0.5-0.9,1-1.8,1c-1.4,0-2.5-1.2-2.5-2.8c0-2,1.3-3.1,2.6-3.1
			c1,0,1.6,0.5,1.8,1h0l0-0.9H-1970.7z M-1971.8,307.8c0-0.2,0-0.3-0.1-0.5c-0.2-0.6-0.7-1.1-1.5-1.1c-1,0-1.7,0.9-1.7,2.2
			c0,1.1,0.6,2.1,1.7,2.1c0.6,0,1.2-0.4,1.5-1.1c0.1-0.2,0.1-0.4,0.1-0.6V307.8z"/>
		<path d="M-1963.8,308.4c0,2.1-1.5,3.1-2.9,3.1c-1.6,0-2.8-1.2-2.8-3c0-1.9,1.3-3.1,2.9-3.1
			C-1964.9,305.4-1963.8,306.6-1963.8,308.4z M-1968.4,308.4c0,1.3,0.7,2.2,1.8,2.2c1,0,1.8-0.9,1.8-2.3c0-1-0.5-2.2-1.7-2.2
			S-1968.4,307.3-1968.4,308.4z"/>
	</g>
	<g>
		<path d="M-1333,311c-0.5,0.2-1.4,0.4-2.5,0.4c-1.2,0-2.2-0.3-3-1.1c-0.7-0.7-1.1-1.8-1.1-3c0-2.4,1.7-4.2,4.4-4.2
			c0.9,0,1.7,0.2,2,0.4l-0.3,0.9c-0.4-0.2-1-0.3-1.8-0.3c-2,0-3.3,1.2-3.3,3.3c0,2.1,1.2,3.3,3.1,3.3c0.7,0,1.2-0.1,1.4-0.2v-2.4
			h-1.6v-0.8h2.7V311z"/>
		<path d="M-1331.4,307.3c0-0.7,0-1.3,0-1.8h0.9l0,1.1h0c0.3-0.8,0.9-1.3,1.6-1.3c0.1,0,0.2,0,0.3,0v1c-0.1,0-0.2,0-0.4,0
			c-0.7,0-1.3,0.6-1.4,1.4c0,0.1,0,0.3,0,0.5v3.1h-1V307.3z"/>
		<path d="M-1327,308.6c0,1.4,0.9,2,2,2c0.8,0,1.2-0.1,1.6-0.3l0.2,0.8c-0.4,0.2-1,0.4-1.9,0.4c-1.8,0-2.9-1.2-2.9-2.9
			s1-3.1,2.7-3.1c1.9,0,2.4,1.7,2.4,2.7c0,0.2,0,0.4,0,0.5H-1327z M-1323.9,307.9c0-0.7-0.3-1.7-1.5-1.7c-1.1,0-1.5,1-1.6,1.7
			H-1323.9z"/>
		<path d="M-1321.2,305.5l1.3,3.4c0.1,0.4,0.3,0.8,0.4,1.2h0c0.1-0.3,0.2-0.8,0.4-1.2l1.2-3.4h1.1l-1.6,4.1c-0.8,2-1.3,3-2,3.6
			c-0.5,0.5-1,0.6-1.3,0.7l-0.3-0.9c0.3-0.1,0.6-0.3,0.9-0.5c0.3-0.2,0.6-0.6,0.9-1.2c0-0.1,0.1-0.2,0.1-0.3c0-0.1,0-0.1-0.1-0.3
			l-2.1-5.3H-1321.2z"/>
	</g>
</g>
<g>
	<path style="fill:#585858;" d="M734.3,34.1c0.4-1.7,0.9-3.3,1.3-4.9c0.4-1.7,1-2.1,2.7-2.1c0.5,0,0.9,0,1.4,0c1.5,0,2,0.5,2.4,1.9
		c0.4,1.3,0.7,2.7,1.1,4c0.1,0.3,0.2,0.7,0.3,1.1c1.5,0,3,0,4.5,0c1.6,0,3.1,0.2,4.6,0.7c3,1,5.2,2.9,6.9,5.6
		c1.4,2.3,2.8,4.5,4.2,6.7c1.1,1.8,2.6,3.1,4.6,3.8c3.1,1.2,4.8,3.7,4.8,7.1c0,2.6-0.1,5.2,0,7.8c0.1,2.9-2.1,6-6.5,5.1
		c1.2-5.3-0.2-9.8-4.8-12.8c-3.9-2.6-8.1-2.6-12-0.2c-4.8,3-6.3,7.5-5.2,13.1c-7.1,0-14.2,0-21.3,0c1.2-5.4-0.2-9.8-4.8-12.9
		c-3.8-2.5-8-2.6-11.9-0.2c-4.9,3-6.4,7.5-5.3,13c-0.1,0.1-0.2,0.2-0.3,0.2c-1.9,0-3.8,0.1-5.8,0c-2.6-0.2-4.4-2.2-4.4-4.8
		c0-1.6,0-3.1,0-4.7c0-0.7-0.2-1-0.8-1.4c-2.8-1.6-4.6-4.1-5.2-7.3c-1-5.4,2.7-10.9,8.1-12c0.7-0.1,1.4-0.2,2-0.2
		c3.6-0.1,6.2-2.5,6.6-6.1c0.1-0.9,0-1.8,0-2.8c-3.1-1-5-3.1-5.3-6.6c0.8,0,1.6-0.1,2.5-0.1c0-1.2,0-2.3,0-3.4c0-0.5,0-1,0-1.5
		c0.1-0.8,0.5-1.3,1.2-1.2c0.7,0,1.2,0.5,1.2,1.3c0,0.6,0,1.2,0,1.8c0,1,0,2,0,3c1.3,0,2.5,0,3.8,0c0-1.4,0-2.8,0-4.2
		c0-0.4,0-0.7,0.1-1.1c0.1-0.6,0.6-0.9,1.2-0.9c0.6,0,1,0.3,1.1,0.9c0.1,0.3,0.1,0.7,0.1,1.1c0,1.4,0,2.7,0,4.2
		c0.8,0,1.6,0.1,2.3,0.1c0.4,2.6-1.5,5.1-5.1,6.6c0,1.1,0,2.2-0.2,3.3c-0.5,4.8-4.2,8.3-9,8.6c-0.5,0-0.9,0-1.4,0.1
		c-2.9,0.4-5.4,2.6-6.1,5.5c-0.8,3,0.4,6.1,2.8,7.9c0.1,0.1,0.3,0.2,0.5,0.3c0.1-0.2,0.2-0.4,0.3-0.6c1.8-3.9,4.8-6.1,9.1-6.3
		c2.2-0.1,4.4-0.3,6.3-1.3c1.4-0.7,2.8-1.5,4-2.4c2.9-2.3,5.7-4.8,8.4-7.2c4.1-3.6,8.8-5.4,14.2-5.5
		C733.8,34.2,733.9,34.1,734.3,34.1z M737.2,36.7c-1.2,0-2.2,0-3.3,0c-4.3,0-8.2,1.4-11.5,4.2c-2.5,2.1-5,4.3-7.5,6.4
		c-0.2,0.1-0.3,0.3-0.5,0.6c7.6,0,15.2,0,22.7,0C737.2,44.2,737.2,40.5,737.2,36.7z M740.4,48c6.6,0,13.2,0,19.9,0
		c-1.4-2.3-2.7-4.4-4-6.5c-2-3.1-4.9-4.7-8.6-4.8c-2.1,0-4.1,0-6.2,0c-0.3,0-0.6,0-1,0.1C740.4,40.5,740.4,44.2,740.4,48z"/>
	<path style="fill:#A8A8A8;" d="M755.5,58.7c5.1,0,9.2,4,9.2,9.1c0,5-4.1,9.2-9.1,9.1c-5.1,0-9.1-4.1-9.1-9.2
		C746.4,62.7,750.5,58.7,755.5,58.7z M759.3,67.8c0-2.1-1.7-3.8-3.8-3.8c-2.1,0-3.8,1.8-3.8,3.8c0,2.1,1.7,3.7,3.8,3.7
		C757.6,71.6,759.3,69.9,759.3,67.8z"/>
	<path style="fill:#A8A8A8;" d="M703.1,67.7c0-5.1,4.1-9.1,9.2-9c5,0,9,4.1,9.1,9.1c0,5-4.1,9.2-9.2,9.1
		C707.1,76.9,703.1,72.8,703.1,67.7z M716,67.8c0-2.1-1.7-3.8-3.8-3.8c-2,0-3.7,1.7-3.8,3.7c0,2.1,1.7,3.8,3.8,3.8
		C714.3,71.6,716,69.9,716,67.8z"/>
	<path style="fill:#383838;" d="M752.8,15.8c-0.3,0.4-0.5,0.9-0.8,1.1c-0.4,0.2-0.9,0.1-1.3,0c-0.3-0.1-0.5-0.4-0.7-0.6
		c-6.3-5.8-15.8-5.8-22.2,0c-0.2,0.2-0.4,0.4-0.7,0.6c-0.5,0.4-1.3,0.3-1.7-0.2c-0.4-0.4-0.4-1.1-0.1-1.6c0.1-0.2,0.3-0.4,0.5-0.6
		c7.1-6.8,18.7-6.8,25.8-0.1C752.1,14.8,752.4,15.3,752.8,15.8z"/>
	<path style="fill:#383838;" d="M729,19.8c0.4-0.5,0.6-0.9,1-1.2c4.3-4,11-4.6,16-1.4c0.8,0.5,1.4,1.1,2.1,1.7
		c0.4,0.4,0.6,0.9,0.3,1.5c-0.3,0.7-1.1,1-1.7,0.6c-0.3-0.2-0.5-0.4-0.8-0.6c-4.1-3.6-10-3.6-14.1-0.1c-0.2,0.2-0.5,0.4-0.7,0.6
		c-0.4,0.3-0.9,0.3-1.3,0C729.5,20.7,729.3,20.3,729,19.8z"/>
	<path style="fill:#383838;" d="M738.9,20.9c1.9,0.1,3.6,0.7,5,2c0.7,0.7,0.7,1.4,0.1,2c-0.5,0.5-1.1,0.4-1.8,0
		c-0.7-0.4-1.3-0.9-2-1.2c-1.5-0.5-3-0.2-4.3,0.8c-0.2,0.2-0.4,0.3-0.6,0.5c-0.6,0.4-1.4,0.3-1.8-0.2c-0.4-0.5-0.4-1.2,0.1-1.8
		C735.1,21.6,736.9,20.9,738.9,20.9z"/>
	<g>
		<path style="fill:#585858;" d="M810.8,46.4c-0.1-0.2-0.5-0.4-1.2-0.8c-0.7-0.4-1.5-0.8-2.5-1.3c-1-0.5-2.1-0.8-3.3-1.2
			s-2.4-0.5-3.6-0.5c-3.3,0-5,1.1-5,3.3c0,0.7,0.2,1.2,0.5,1.7c0.4,0.5,0.9,0.9,1.6,1.2s1.6,0.7,2.6,1c1.1,0.3,2.3,0.6,3.7,1
			c1.9,0.5,3.7,1.1,5.2,1.7c1.5,0.6,2.9,1.4,3.9,2.3c1.1,0.9,1.9,2,2.5,3.4s0.9,2.9,0.9,4.8c0,2.3-0.4,4.2-1.3,5.7
			c-0.8,1.6-2,2.8-3.4,3.8s-3,1.7-4.8,2.1c-1.8,0.4-3.7,0.7-5.6,0.7c-1.5,0-3-0.1-4.5-0.3s-3.1-0.6-4.5-1s-2.9-1-4.3-1.6
			c-1.4-0.6-2.7-1.3-3.8-2.1l4.1-8.1c0.2,0.2,0.6,0.5,1.5,1.1c0.8,0.5,1.9,1.1,3.1,1.6s2.6,1,4.1,1.4c1.5,0.4,3,0.6,4.6,0.6
			c3.3,0,4.9-1,4.9-3c0-0.8-0.2-1.4-0.7-1.9c-0.5-0.5-1.2-0.9-2-1.3c-0.9-0.4-1.9-0.8-3.1-1.1c-1.2-0.3-2.5-0.7-3.9-1.1
			c-1.8-0.6-3.5-1.2-4.8-1.8c-1.4-0.7-2.5-1.4-3.4-2.3c-0.9-0.9-1.5-1.9-2-3s-0.7-2.5-0.7-4c0-2.1,0.4-4,1.2-5.6
			c0.8-1.6,1.9-3,3.2-4.1c1.4-1.1,2.9-2,4.7-2.5c1.8-0.6,3.7-0.8,5.7-0.8c1.4,0,2.8,0.1,4.1,0.4c1.4,0.3,2.7,0.6,3.9,1
			c1.2,0.4,2.4,0.9,3.5,1.4c1.1,0.5,2.1,1.1,3,1.6L810.8,46.4z"/>
		<path style="fill:#585858;" d="M820.7,41.7v-8.2h9.1v8.2H820.7z M820.7,74.8V45.1h9.1v29.7H820.7z"/>
		<path style="fill:#585858;" d="M883,74.8h-9.1V58.1c0-2-0.4-3.4-1.1-4.3c-0.7-0.9-1.6-1.3-2.8-1.3c-0.6,0-1.2,0.1-1.8,0.4
			c-0.6,0.3-1.2,0.6-1.7,1.1c-0.5,0.5-1,1-1.4,1.7c-0.4,0.6-0.8,1.3-1,2.1v17H855V58.1c0-2-0.4-3.4-1.1-4.3
			c-0.7-0.9-1.6-1.3-2.8-1.3c-1.2,0-2.4,0.5-3.5,1.4c-1.2,1-2,2.2-2.5,3.8v17H836V45.1h8.1v5c1.1-1.8,2.6-3.2,4.4-4.1
			c1.9-0.9,4-1.4,6.5-1.4c1.2,0,2.3,0.2,3.3,0.5c0.9,0.3,1.7,0.7,2.4,1.2s1.2,1.1,1.6,1.8s0.7,1.4,0.9,2.2c1.1-1.8,2.6-3.3,4.5-4.3
			c1.8-1,4-1.5,6.3-1.5c1.9,0,3.4,0.3,4.6,1c1.2,0.7,2,1.6,2.7,2.7c0.6,1.1,1.1,2.3,1.3,3.6c0.2,1.3,0.3,2.6,0.3,3.8V74.8z"/>
		<path style="fill:#383838;" d="M914.3,42.2c-1.1-1.3-2.6-2.3-4.5-3.1c-1.9-0.8-4-1.2-6.5-1.2c-3.5,0-6.1,0.7-7.8,2
			c-1.6,1.3-2.4,3.2-2.4,5.5c0,1.2,0.2,2.2,0.7,3c0.4,0.8,1.1,1.4,2,2c0.9,0.6,2.1,1.1,3.5,1.5c1.4,0.4,3.1,0.8,5,1.2
			c2.2,0.5,4.1,1,5.8,1.5c1.7,0.6,3.2,1.3,4.4,2.1c1.2,0.8,2.1,1.9,2.8,3.1c0.6,1.2,1,2.7,1,4.5c0,1.8-0.4,3.5-1.1,4.8
			c-0.7,1.4-1.7,2.5-3,3.4c-1.3,0.9-2.8,1.6-4.6,2c-1.8,0.4-3.7,0.7-5.8,0.7c-6.2,0-11.6-1.9-16.1-5.8l2-3.2
			c0.7,0.8,1.6,1.5,2.6,2.2s2.1,1.3,3.3,1.8c1.2,0.5,2.5,0.9,3.9,1.2c1.4,0.3,2.9,0.4,4.4,0.4c3.2,0,5.7-0.6,7.5-1.7
			c1.8-1.2,2.7-2.9,2.7-5.2c0-1.2-0.3-2.3-0.8-3.1c-0.5-0.8-1.3-1.6-2.3-2.2c-1-0.6-2.3-1.2-3.8-1.6c-1.5-0.5-3.3-0.9-5.3-1.4
			c-2.1-0.5-4-1-5.5-1.5c-1.6-0.5-2.9-1.2-4-2c-1.1-0.8-1.9-1.7-2.5-2.9c-0.5-1.1-0.8-2.5-0.8-4.1c0-1.8,0.3-3.5,1-5
			c0.7-1.5,1.7-2.7,3-3.6s2.8-1.7,4.5-2.2c1.7-0.5,3.7-0.8,5.8-0.8c2.7,0,5.1,0.4,7.2,1.2c2.1,0.8,4,2,5.7,3.4L914.3,42.2z"/>
		<path style="fill:#383838;" d="M936.9,34.7h3.3L957,74.8h-4.2l-5.2-12.6h-18l-5.1,12.6h-4.2L936.9,34.7z M946.7,59.2l-8.1-19.9
			l-8.2,19.9H946.7z"/>
		<path style="fill:#383838;" d="M989.7,71.3v3.5h-27V34.7h26.5v3.5h-22.5v14.5h19.6V56h-19.6v15.3H989.7z"/>
		<path style="fill:#383838;" d="M997,34.7l14.4,35.2l14.3-35.2h4.1l-16.7,40.2h-3.5l-16.7-40.2H997z"/>
	</g>
</g>
<g>
	<g>
		<path style="fill:#FFFFFF;" d="M-1108.2,310.1c0.5,0.3,1.2,0.5,1.9,0.5c1.1,0,1.7-0.6,1.7-1.4c0-0.8-0.4-1.2-1.5-1.6
			c-1.3-0.5-2.1-1.2-2.1-2.3c0-1.3,1-2.2,2.6-2.2c0.8,0,1.4,0.2,1.8,0.4l-0.3,0.9c-0.3-0.1-0.8-0.4-1.5-0.4c-1.1,0-1.5,0.7-1.5,1.2
			c0,0.8,0.5,1.1,1.6,1.6c1.4,0.5,2.1,1.2,2.1,2.4c0,1.2-0.9,2.3-2.8,2.3c-0.8,0-1.6-0.2-2.1-0.5L-1108.2,310.1z"/>
		<path style="fill:#FFFFFF;" d="M-1101,303.9c0,0.4-0.3,0.6-0.7,0.6c-0.4,0-0.6-0.3-0.6-0.6c0-0.4,0.3-0.7,0.7-0.7
			C-1101.3,303.2-1101,303.5-1101,303.9z M-1102.2,311.3v-5.8h1.1v5.8H-1102.2z"/>
		<path style="fill:#FFFFFF;" d="M-1099.4,307.1c0-0.6,0-1.1,0-1.6h0.9l0,0.9h0c0.3-0.6,0.9-1.1,1.8-1.1c0.8,0,1.4,0.5,1.6,1.2h0
			c0.2-0.3,0.4-0.6,0.6-0.8c0.3-0.3,0.7-0.4,1.3-0.4c0.8,0,1.9,0.5,1.9,2.5v3.4h-1V308c0-1.1-0.4-1.8-1.3-1.8c-0.6,0-1.1,0.4-1.2,1
			c0,0.1-0.1,0.3-0.1,0.5v3.6h-1v-3.5c0-0.9-0.4-1.6-1.2-1.6c-0.7,0-1.1,0.5-1.3,1.1c-0.1,0.2-0.1,0.3-0.1,0.5v3.5h-1V307.1z"/>
		<path style="fill:#FFFFFF;" d="M-1089.5,310.1c0.5,0.3,1.2,0.5,1.9,0.5c1.1,0,1.7-0.6,1.7-1.4c0-0.8-0.4-1.2-1.5-1.6
			c-1.3-0.5-2.1-1.2-2.1-2.3c0-1.3,1-2.2,2.6-2.2c0.8,0,1.4,0.2,1.8,0.4l-0.3,0.9c-0.3-0.1-0.8-0.4-1.5-0.4c-1.1,0-1.5,0.7-1.5,1.2
			c0,0.8,0.5,1.1,1.6,1.6c1.4,0.5,2.1,1.2,2.1,2.4c0,1.2-0.9,2.3-2.8,2.3c-0.8,0-1.6-0.2-2.1-0.5L-1089.5,310.1z"/>
		<path style="fill:#FFFFFF;" d="M-1082.1,308.8l-0.8,2.5h-1.1l2.7-8.1h1.3l2.8,8.1h-1.1l-0.9-2.5H-1082.1z M-1079.5,308l-0.8-2.3
			c-0.2-0.5-0.3-1-0.4-1.5h0c-0.1,0.5-0.3,1-0.4,1.5l-0.8,2.3H-1079.5z"/>
		<path style="fill:#FFFFFF;" d="M-1071.9,307.5h-3.1v2.9h3.5v0.9h-4.5v-8.1h4.4v0.9h-3.3v2.6h3.1V307.5z"/>
		<path style="fill:#FFFFFF;" d="M-1068.3,311.3l-2.6-8.1h1.1l1.3,4c0.3,1.1,0.6,2.1,0.9,3h0c0.2-0.9,0.6-2,0.9-3l1.4-4h1.1
			l-2.9,8.1H-1068.3z"/>
		<path style="fill:#FFFFFF;" d="M-1060.8,303.2h1v7.2h3.5v0.9h-4.5V303.2z"/>
		<path style="fill:#FFFFFF;" d="M-1050.1,308.4c0,2.1-1.5,3.1-2.9,3.1c-1.6,0-2.8-1.2-2.8-3c0-1.9,1.3-3.1,2.9-3.1
			C-1051.3,305.4-1050.1,306.6-1050.1,308.4z M-1054.7,308.4c0,1.3,0.7,2.2,1.8,2.2c1,0,1.8-0.9,1.8-2.3c0-1-0.5-2.2-1.7-2.2
			C-1054.2,306.2-1054.7,307.3-1054.7,308.4z"/>
		<path style="fill:#FFFFFF;" d="M-1043.8,305.5c0,0.4,0,0.9,0,1.6v3.4c0,1.3-0.3,2.1-0.8,2.7c-0.6,0.5-1.4,0.7-2.1,0.7
			c-0.7,0-1.5-0.2-1.9-0.5l0.3-0.8c0.4,0.2,1,0.5,1.7,0.5c1.1,0,1.9-0.6,1.9-2v-0.6h0c-0.3,0.5-0.9,1-1.8,1c-1.4,0-2.5-1.2-2.5-2.8
			c0-2,1.3-3.1,2.6-3.1c1,0,1.6,0.5,1.8,1h0l0-0.9H-1043.8z M-1044.9,307.8c0-0.2,0-0.3-0.1-0.5c-0.2-0.6-0.7-1.1-1.5-1.1
			c-1,0-1.7,0.9-1.7,2.2c0,1.1,0.6,2.1,1.7,2.1c0.6,0,1.2-0.4,1.5-1.1c0.1-0.2,0.1-0.4,0.1-0.6V307.8z"/>
		<path style="fill:#FFFFFF;" d="M-1036.8,308.4c0,2.1-1.5,3.1-2.9,3.1c-1.6,0-2.8-1.2-2.8-3c0-1.9,1.3-3.1,2.9-3.1
			C-1038,305.4-1036.8,306.6-1036.8,308.4z M-1041.4,308.4c0,1.3,0.7,2.2,1.8,2.2c1,0,1.8-0.9,1.8-2.3c0-1-0.5-2.2-1.7-2.2
			C-1040.9,306.2-1041.4,307.3-1041.4,308.4z"/>
	</g>
	<g>
		<path style="fill:#FFFFFF;" d="M-410.9,311.3l-2.1-8.1h1.1l1,4.1c0.2,1,0.5,2,0.6,2.8h0c0.1-0.8,0.4-1.8,0.7-2.8l1.1-4.1h1.1
			l1,4.1c0.2,1,0.4,1.9,0.6,2.8h0c0.2-0.9,0.4-1.8,0.6-2.8l1.1-4.1h1.1l-2.3,8.1h-1.1l-1-4.2c-0.3-1-0.4-1.8-0.5-2.6h0
			c-0.1,0.8-0.3,1.6-0.6,2.6l-1.2,4.2H-410.9z"/>
		<path style="fill:#FFFFFF;" d="M-402.1,302.8h1.1v3.6h0c0.2-0.3,0.4-0.6,0.8-0.7c0.3-0.2,0.7-0.3,1.1-0.3c0.8,0,2,0.5,2,2.5v3.5
			h-1.1V308c0-0.9-0.3-1.7-1.3-1.7c-0.7,0-1.2,0.5-1.4,1.1c-0.1,0.1-0.1,0.3-0.1,0.5v3.5h-1.1V302.8z"/>
		<path style="fill:#FFFFFF;" d="M-394.3,303.9c0,0.4-0.3,0.6-0.7,0.6c-0.4,0-0.6-0.3-0.6-0.6c0-0.4,0.3-0.7,0.7-0.7
			C-394.5,303.2-394.3,303.5-394.3,303.9z M-395.5,311.3v-5.8h1.1v5.8H-395.5z"/>
		<path style="fill:#FFFFFF;" d="M-391.4,303.9v1.7h1.5v0.8h-1.5v3.1c0,0.7,0.2,1.1,0.8,1.1c0.3,0,0.5,0,0.6-0.1l0,0.8
			c-0.2,0.1-0.5,0.1-0.9,0.1c-0.5,0-0.9-0.2-1.1-0.4c-0.3-0.3-0.4-0.8-0.4-1.5v-3.2h-0.9v-0.8h0.9v-1.4L-391.4,303.9z"/>
		<path style="fill:#FFFFFF;" d="M-388.2,308.6c0,1.4,0.9,2,2,2c0.8,0,1.2-0.1,1.6-0.3l0.2,0.8c-0.4,0.2-1,0.4-1.9,0.4
			c-1.8,0-2.9-1.2-2.9-2.9s1-3.1,2.7-3.1c1.9,0,2.4,1.7,2.4,2.7c0,0.2,0,0.4,0,0.5H-388.2z M-385.1,307.9c0-0.7-0.3-1.7-1.5-1.7
			c-1.1,0-1.5,1-1.6,1.7H-385.1z"/>
	</g>
</g>
<g>
	<path style="fill:#BFBFBF;" d="M1661.2,34.1c0.4-1.7,0.9-3.3,1.3-4.9c0.4-1.7,1-2.1,2.7-2.1c0.5,0,0.9,0,1.4,0c1.5,0,2,0.5,2.4,1.9
		c0.4,1.3,0.7,2.7,1.1,4c0.1,0.3,0.2,0.7,0.3,1.1c1.5,0,3,0,4.5,0c1.6,0,3.1,0.2,4.6,0.7c3,1,5.2,2.9,6.9,5.6
		c1.4,2.3,2.8,4.5,4.2,6.7c1.1,1.8,2.6,3.1,4.6,3.8c3.1,1.2,4.8,3.7,4.8,7.1c0,2.6-0.1,5.2,0,7.8c0.1,2.9-2.1,6-6.5,5.1
		c1.2-5.3-0.2-9.8-4.8-12.8c-3.9-2.6-8.1-2.6-12-0.2c-4.8,3-6.3,7.5-5.2,13.1c-7.1,0-14.2,0-21.3,0c1.2-5.4-0.2-9.8-4.8-12.9
		c-3.8-2.5-8-2.6-11.9-0.2c-4.9,3-6.4,7.5-5.3,13c-0.1,0.1-0.2,0.2-0.3,0.2c-1.9,0-3.8,0.1-5.8,0c-2.6-0.2-4.4-2.2-4.4-4.8
		c0-1.6,0-3.1,0-4.7c0-0.7-0.2-1-0.8-1.4c-2.8-1.6-4.6-4.1-5.2-7.3c-1-5.4,2.7-10.9,8.1-12c0.7-0.1,1.4-0.2,2-0.2
		c3.6-0.1,6.2-2.5,6.6-6.1c0.1-0.9,0-1.8,0-2.8c-3.1-1-5-3.1-5.3-6.6c0.8,0,1.6-0.1,2.5-0.1c0-1.2,0-2.3,0-3.4c0-0.5,0-1,0-1.5
		c0.1-0.8,0.5-1.3,1.2-1.2c0.7,0,1.2,0.5,1.2,1.3c0,0.6,0,1.2,0,1.8c0,1,0,2,0,3c1.3,0,2.5,0,3.8,0c0-1.4,0-2.8,0-4.2
		c0-0.4,0-0.7,0.1-1.1c0.1-0.6,0.6-0.9,1.2-0.9c0.6,0,1,0.3,1.1,0.9c0.1,0.3,0.1,0.7,0.1,1.1c0,1.4,0,2.7,0,4.2
		c0.8,0,1.6,0.1,2.3,0.1c0.4,2.6-1.5,5.1-5.1,6.6c0,1.1,0,2.2-0.2,3.3c-0.5,4.8-4.2,8.3-9,8.6c-0.5,0-0.9,0-1.4,0.1
		c-2.9,0.4-5.4,2.6-6.1,5.5c-0.8,3,0.4,6.1,2.8,7.9c0.1,0.1,0.3,0.2,0.5,0.3c0.1-0.2,0.2-0.4,0.3-0.6c1.8-3.9,4.8-6.1,9.1-6.3
		c2.2-0.1,4.4-0.3,6.3-1.3c1.4-0.7,2.8-1.5,4-2.4c2.9-2.3,5.7-4.8,8.4-7.2c4.1-3.6,8.8-5.4,14.2-5.5
		C1660.7,34.2,1660.9,34.1,1661.2,34.1z M1664.1,36.7c-1.2,0-2.2,0-3.3,0c-4.3,0-8.2,1.4-11.5,4.2c-2.5,2.1-5,4.3-7.5,6.4
		c-0.2,0.1-0.3,0.3-0.5,0.6c7.6,0,15.2,0,22.7,0C1664.1,44.2,1664.1,40.5,1664.1,36.7z M1667.3,48c6.6,0,13.2,0,19.9,0
		c-1.4-2.3-2.7-4.4-4-6.5c-2-3.1-4.9-4.7-8.6-4.8c-2.1,0-4.1,0-6.2,0c-0.3,0-0.6,0-1,0.1C1667.3,40.5,1667.3,44.2,1667.3,48z"/>
	<path style="fill:#FFFFFF;" d="M1682.4,58.7c5.1,0,9.2,4,9.2,9.1c0,5-4.1,9.2-9.1,9.1c-5.1,0-9.1-4.1-9.1-9.2
		C1673.4,62.7,1677.4,58.7,1682.4,58.7z M1686.2,67.8c0-2.1-1.7-3.8-3.8-3.8c-2.1,0-3.8,1.8-3.8,3.8c0,2.1,1.7,3.7,3.8,3.7
		C1684.5,71.6,1686.2,69.9,1686.2,67.8z"/>
	<path style="fill:#FFFFFF;" d="M1630,67.7c0-5.1,4.1-9.1,9.2-9c5,0,9,4.1,9.1,9.1c0,5-4.1,9.2-9.2,9.1
		C1634.1,76.9,1630,72.8,1630,67.7z M1642.9,67.8c0-2.1-1.7-3.8-3.8-3.8c-2,0-3.7,1.7-3.8,3.7c0,2.1,1.7,3.8,3.8,3.8
		C1641.2,71.6,1642.9,69.9,1642.9,67.8z"/>
	<path style="fill:#FFFFFF;" d="M1679.7,15.8c-0.3,0.4-0.5,0.9-0.8,1.1c-0.4,0.2-0.9,0.1-1.3,0c-0.3-0.1-0.5-0.4-0.7-0.6
		c-6.3-5.8-15.8-5.8-22.2,0c-0.2,0.2-0.4,0.4-0.7,0.6c-0.5,0.4-1.3,0.3-1.7-0.2c-0.4-0.4-0.4-1.1-0.1-1.6c0.1-0.2,0.3-0.4,0.5-0.6
		c7.1-6.8,18.7-6.8,25.8-0.1C1679,14.8,1679.3,15.3,1679.7,15.8z"/>
	<path style="fill:#FFFFFF;" d="M1656,19.8c0.4-0.5,0.6-0.9,1-1.2c4.3-4,11-4.6,16-1.4c0.8,0.5,1.4,1.1,2.1,1.7
		c0.4,0.4,0.6,0.9,0.3,1.5c-0.3,0.7-1.1,1-1.7,0.6c-0.3-0.2-0.5-0.4-0.8-0.6c-4.1-3.6-10-3.6-14.1-0.1c-0.2,0.2-0.5,0.4-0.7,0.6
		c-0.4,0.3-0.9,0.3-1.3,0C1656.4,20.7,1656.2,20.3,1656,19.8z"/>
	<path style="fill:#FFFFFF;" d="M1665.8,20.9c1.9,0.1,3.6,0.7,5,2c0.7,0.7,0.7,1.4,0.1,2c-0.5,0.5-1.1,0.4-1.8,0
		c-0.7-0.4-1.3-0.9-2-1.2c-1.5-0.5-3-0.2-4.3,0.8c-0.2,0.2-0.4,0.3-0.6,0.5c-0.6,0.4-1.4,0.3-1.8-0.2c-0.4-0.5-0.4-1.2,0.1-1.8
		C1662,21.6,1663.8,20.9,1665.8,20.9z"/>
	<g>
		<path style="fill:#BFBFBF;" d="M1737.7,46.4c-0.1-0.2-0.5-0.4-1.2-0.8c-0.7-0.4-1.5-0.8-2.5-1.3c-1-0.5-2.1-0.8-3.3-1.2
			s-2.4-0.5-3.6-0.5c-3.3,0-5,1.1-5,3.3c0,0.7,0.2,1.2,0.5,1.7c0.4,0.5,0.9,0.9,1.6,1.2c0.7,0.4,1.6,0.7,2.6,1
			c1.1,0.3,2.3,0.6,3.7,1c1.9,0.5,3.7,1.1,5.2,1.7c1.5,0.6,2.9,1.4,3.9,2.3c1.1,0.9,1.9,2,2.5,3.4c0.6,1.3,0.9,2.9,0.9,4.8
			c0,2.3-0.4,4.2-1.3,5.7c-0.8,1.6-2,2.8-3.4,3.8s-3,1.7-4.8,2.1c-1.8,0.4-3.7,0.7-5.6,0.7c-1.5,0-3-0.1-4.5-0.3s-3.1-0.6-4.5-1
			c-1.5-0.4-2.9-1-4.3-1.6c-1.4-0.6-2.7-1.3-3.8-2.1l4.1-8.1c0.2,0.2,0.6,0.5,1.5,1.1c0.8,0.5,1.9,1.1,3.1,1.6
			c1.2,0.5,2.6,1,4.1,1.4c1.5,0.4,3,0.6,4.6,0.6c3.3,0,4.9-1,4.9-3c0-0.8-0.2-1.4-0.7-1.9c-0.5-0.5-1.2-0.9-2-1.3
			c-0.9-0.4-1.9-0.8-3.1-1.1c-1.2-0.3-2.5-0.7-3.9-1.1c-1.8-0.6-3.5-1.2-4.8-1.8c-1.4-0.7-2.5-1.4-3.4-2.3c-0.9-0.9-1.5-1.9-2-3
			s-0.7-2.5-0.7-4c0-2.1,0.4-4,1.2-5.6c0.8-1.6,1.9-3,3.2-4.1c1.4-1.1,2.9-2,4.7-2.5c1.8-0.6,3.7-0.8,5.7-0.8c1.4,0,2.8,0.1,4.1,0.4
			c1.4,0.3,2.7,0.6,3.9,1c1.2,0.4,2.4,0.9,3.5,1.4c1.1,0.5,2.1,1.1,3,1.6L1737.7,46.4z"/>
		<path style="fill:#BFBFBF;" d="M1747.7,41.7v-8.2h9.1v8.2H1747.7z M1747.7,74.8V45.1h9.1v29.7H1747.7z"/>
		<path style="fill:#BFBFBF;" d="M1809.9,74.8h-9.1V58.1c0-2-0.4-3.4-1.1-4.3c-0.7-0.9-1.6-1.3-2.8-1.3c-0.6,0-1.2,0.1-1.8,0.4
			c-0.6,0.3-1.2,0.6-1.7,1.1c-0.5,0.5-1,1-1.4,1.7c-0.4,0.6-0.8,1.3-1,2.1v17h-9.1V58.1c0-2-0.4-3.4-1.1-4.3
			c-0.7-0.9-1.6-1.3-2.8-1.3c-1.2,0-2.4,0.5-3.5,1.4c-1.2,1-2,2.2-2.5,3.8v17h-9.1V45.1h8.1v5c1.1-1.8,2.6-3.2,4.4-4.1
			c1.9-0.9,4-1.4,6.5-1.4c1.2,0,2.3,0.2,3.3,0.5c0.9,0.3,1.7,0.7,2.4,1.2c0.7,0.5,1.2,1.1,1.6,1.8s0.7,1.4,0.9,2.2
			c1.1-1.8,2.6-3.3,4.5-4.3c1.8-1,4-1.5,6.3-1.5c1.9,0,3.4,0.3,4.6,1c1.2,0.7,2,1.6,2.7,2.7c0.6,1.1,1.1,2.3,1.3,3.6
			c0.2,1.3,0.3,2.6,0.3,3.8V74.8z"/>
		<path style="fill:#FFFFFF;" d="M1841.2,42.2c-1.1-1.3-2.6-2.3-4.5-3.1c-1.9-0.8-4-1.2-6.5-1.2c-3.5,0-6.1,0.7-7.8,2
			c-1.6,1.3-2.4,3.2-2.4,5.5c0,1.2,0.2,2.2,0.7,3c0.4,0.8,1.1,1.4,2,2c0.9,0.6,2.1,1.1,3.5,1.5s3.1,0.8,5,1.2c2.2,0.5,4.1,1,5.8,1.5
			c1.7,0.6,3.2,1.3,4.4,2.1c1.2,0.8,2.1,1.9,2.8,3.1c0.6,1.2,1,2.7,1,4.5c0,1.8-0.4,3.5-1.1,4.8c-0.7,1.4-1.7,2.5-3,3.4
			c-1.3,0.9-2.8,1.6-4.6,2c-1.8,0.4-3.7,0.7-5.8,0.7c-6.2,0-11.6-1.9-16.1-5.8l2-3.2c0.7,0.8,1.6,1.5,2.6,2.2c1,0.7,2.1,1.3,3.3,1.8
			c1.2,0.5,2.5,0.9,3.9,1.2s2.9,0.4,4.4,0.4c3.2,0,5.7-0.6,7.5-1.7c1.8-1.2,2.7-2.9,2.7-5.2c0-1.2-0.3-2.3-0.8-3.1s-1.3-1.6-2.3-2.2
			c-1-0.6-2.3-1.2-3.8-1.6c-1.5-0.5-3.3-0.9-5.3-1.4c-2.1-0.5-4-1-5.5-1.5c-1.6-0.5-2.9-1.2-4-2c-1.1-0.8-1.9-1.7-2.5-2.9
			s-0.8-2.5-0.8-4.1c0-1.8,0.3-3.5,1-5c0.7-1.5,1.7-2.7,3-3.6c1.3-1,2.8-1.7,4.5-2.2c1.7-0.5,3.7-0.8,5.8-0.8c2.7,0,5.1,0.4,7.2,1.2
			c2.1,0.8,4,2,5.7,3.4L1841.2,42.2z"/>
		<path style="fill:#FFFFFF;" d="M1863.9,34.7h3.3l16.7,40.2h-4.2l-5.2-12.6h-18.1l-5.1,12.6h-4.2L1863.9,34.7z M1873.6,59.2
			l-8.1-19.9l-8.2,19.9H1873.6z"/>
		<path style="fill:#FFFFFF;" d="M1916.7,71.3v3.5h-27V34.7h26.5v3.5h-22.5v14.5h19.6V56h-19.6v15.3H1916.7z"/>
		<path style="fill:#FFFFFF;" d="M1924,34.7l14.4,35.2l14.3-35.2h4.1L1940,74.8h-3.5l-16.7-40.2H1924z"/>
	</g>
</g>
<g>
</g>
<g>
</g>
<g>
</g>
<g>
</g>
<g>
</g>
<g>
</g>
</svg>
